{"glyphs":{"0":{"ha":1042,"x_min":0,"x_max":868,"o":"m 174 0 l 174 174 l 694 174 l 694 0 l 174 0 m 347 521 l 347 694 l 521 694 l 521 521 l 347 521 m 0 174 l 0 1042 l 174 1042 l 174 521 l 347 521 l 347 347 l 174 347 l 174 174 l 0 174 m 694 174 l 694 694 l 521 694 l 521 868 l 694 868 l 694 1042 l 868 1042 l 868 174 l 694 174 m 174 1042 l 174 1215 l 694 1215 l 694 1042 l 174 1042 z "},"1":{"ha":1042,"x_min":0,"x_max":868,"o":"m 0 0 l 0 174 l 347 174 l 347 868 l 174 868 l 174 1042 l 347 1042 l 347 1215 l 521 1215 l 521 174 l 868 174 l 868 0 l 0 0 z "},"2":{"ha":1042,"x_min":0,"x_max":868,"o":"m 0 0 l 0 347 l 174 347 l 174 174 l 694 174 l 694 347 l 868 347 l 868 0 l 0 0 m 174 347 l 174 521 l 347 521 l 347 347 l 174 347 m 347 521 l 347 694 l 694 694 l 694 521 l 347 521 m 0 868 l 0 1042 l 174 1042 l 174 868 l 0 868 m 694 694 l 694 1042 l 868 1042 l 868 694 l 694 694 m 174 1042 l 174 1215 l 694 1215 l 694 1042 l 174 1042 z "},"3":{"ha":1042,"x_min":0,"x_max":868,"o":"m 174 0 l 174 174 l 694 174 l 694 0 l 174 0 m 0 174 l 0 347 l 174 347 l 174 174 l 0 174 m 694 174 l 694 521 l 868 521 l 868 174 l 694 174 m 347 521 l 347 694 l 694 694 l 694 521 l 347 521 m 0 868 l 0 1042 l 174 1042 l 174 868 l 0 868 m 694 694 l 694 1042 l 868 1042 l 868 694 l 694 694 m 174 1042 l 174 1215 l 694 1215 l 694 1042 l 174 1042 z "},"4":{"ha":1042,"x_min":0,"x_max":868,"o":"m 174 694 l 174 868 l 347 868 l 347 694 l 174 694 m 347 868 l 347 1042 l 521 1042 l 521 868 l 347 868 m 694 0 l 694 347 l 0 347 l 0 694 l 174 694 l 174 521 l 694 521 l 694 1042 l 521 1042 l 521 1215 l 868 1215 l 868 0 l 694 0 z "},"5":{"ha":1042,"x_min":0,"x_max":868,"o":"m 174 0 l 174 174 l 694 174 l 694 0 l 174 0 m 0 174 l 0 347 l 174 347 l 174 174 l 0 174 m 694 174 l 694 694 l 868 694 l 868 174 l 694 174 m 0 694 l 0 1215 l 868 1215 l 868 1042 l 174 1042 l 174 868 l 694 868 l 694 694 l 0 694 z "},"6":{"ha":1042,"x_min":0,"x_max":868,"o":"m 174 0 l 174 174 l 694 174 l 694 0 l 174 0 m 694 174 l 694 521 l 868 521 l 868 174 l 694 174 m 0 174 l 0 868 l 174 868 l 174 694 l 694 694 l 694 521 l 174 521 l 174 174 l 0 174 m 174 868 l 174 1042 l 347 1042 l 347 868 l 174 868 m 347 1042 l 347 1215 l 694 1215 l 694 1042 l 347 1042 z "},"7":{"ha":1042,"x_min":0,"x_max":868,"o":"m 347 0 l 347 521 l 521 521 l 521 0 l 347 0 m 521 521 l 521 694 l 694 694 l 694 521 l 521 521 m 694 694 l 694 1042 l 174 1042 l 174 868 l 0 868 l 0 1215 l 868 1215 l 868 694 l 694 694 z "},"8":{"ha":1042,"x_min":0,"x_max":868,"o":"m 174 0 l 174 174 l 694 174 l 694 0 l 174 0 m 0 174 l 0 521 l 174 521 l 174 174 l 0 174 m 694 174 l 694 521 l 868 521 l 868 174 l 694 174 m 174 521 l 174 694 l 694 694 l 694 521 l 174 521 m 0 694 l 0 1042 l 174 1042 l 174 694 l 0 694 m 694 694 l 694 1042 l 868 1042 l 868 694 l 694 694 m 174 1042 l 174 1215 l 694 1215 l 694 1042 l 174 1042 z "},"9":{"ha":1042,"x_min":0,"x_max":868,"o":"m 174 0 l 174 174 l 521 174 l 521 0 l 174 0 m 521 174 l 521 347 l 694 347 l 694 174 l 521 174 m 0 694 l 0 1042 l 174 1042 l 174 694 l 0 694 m 694 347 l 694 521 l 174 521 l 174 694 l 694 694 l 694 1042 l 868 1042 l 868 347 l 694 347 m 174 1042 l 174 1215 l 694 1215 l 694 1042 l 174 1042 z "},"\u0000":{"ha":0,"x_min":0,"x_max":0,"o":""},"\r":{"ha":0,"x_min":0,"x_max":0,"o":""}," ":{"ha":347,"x_min":0,"x_max":0,"o":""},"!":{"ha":347,"x_min":0,"x_max":174,"o":"m 0 0 l 0 174 l 174 174 l 174 0 l 0 0 m 0 347 l 0 1215 l 174 1215 l 174 347 l 0 347 z "},"\"":{"ha":694,"x_min":0,"x_max":521,"o":"m 0 694 l 0 1215 l 174 1215 l 174 694 l 0 694 m 347 694 l 347 1215 l 521 1215 l 521 694 l 347 694 z "},"#":{"ha":868,"x_min":0,"x_max":868,"o":"m 521 521 l 521 694 l 347 694 l 347 521 l 521 521 m 174 0 l 174 347 l 0 347 l 0 521 l 174 521 l 174 694 l 0 694 l 0 868 l 174 868 l 174 1215 l 347 1215 l 347 868 l 521 868 l 521 1215 l 694 1215 l 694 868 l 868 868 l 868 694 l 694 694 l 694 521 l 868 521 l 868 347 l 694 347 l 694 0 l 521 0 l 521 347 l 347 347 l 347 0 l 174 0 z "},"$":{"ha":1042,"x_min":0,"x_max":868,"o":"m 347 0 l 347 174 l 0 174 l 0 347 l 694 347 l 694 174 l 521 174 l 521 0 l 347 0 m 694 347 l 694 521 l 868 521 l 868 347 l 694 347 m 174 521 l 174 694 l 694 694 l 694 521 l 174 521 m 0 694 l 0 868 l 174 868 l 174 694 l 0 694 m 174 868 l 174 1042 l 347 1042 l 347 1215 l 521 1215 l 521 1042 l 868 1042 l 868 868 l 174 868 z "},"%":{"ha":1042,"x_min":0,"x_max":868,"o":"m 0 0 l 0 174 l 174 174 l 174 0 l 0 0 m 694 0 l 694 347 l 868 347 l 868 0 l 694 0 m 174 174 l 174 521 l 347 521 l 347 174 l 174 174 m 347 521 l 347 694 l 521 694 l 521 521 l 347 521 m 521 694 l 521 1042 l 694 1042 l 694 694 l 521 694 m 0 868 l 0 1215 l 174 1215 l 174 868 l 0 868 m 694 1042 l 694 1215 l 868 1215 l 868 1042 l 694 1042 z "},"&":{"ha":1042,"x_min":0,"x_max":868,"o":"m 174 0 l 174 174 l 521 174 l 521 0 l 174 0 m 694 0 l 694 174 l 868 174 l 868 0 l 694 0 m 0 174 l 0 521 l 174 521 l 174 174 l 0 174 m 694 521 l 694 694 l 868 694 l 868 521 l 694 521 m 521 174 l 521 347 l 347 347 l 347 521 l 174 521 l 174 694 l 347 694 l 347 868 l 521 868 l 521 521 l 694 521 l 694 174 l 521 174 m 174 868 l 174 1042 l 347 1042 l 347 868 l 174 868 m 521 868 l 521 1042 l 694 1042 l 694 868 l 521 868 m 347 1042 l 347 1215 l 521 1215 l 521 1042 l 347 1042 z "},"'":{"ha":521,"x_min":0,"x_max":347,"o":"m 174 694 l 174 1042 l 347 1042 l 347 694 l 174 694 m 174 1215 l 174 1042 l 0 1042 l 0 1215 l 174 1215 z "},"(":{"ha":868,"x_min":0,"x_max":694,"o":"m 347 0 l 347 174 l 694 174 l 694 0 l 347 0 m 174 174 l 174 347 l 347 347 l 347 174 l 174 174 m 0 347 l 0 868 l 174 868 l 174 347 l 0 347 m 174 868 l 174 1042 l 347 1042 l 347 868 l 174 868 m 347 1042 l 347 1215 l 694 1215 l 694 1042 l 347 1042 z "},")":{"ha":868,"x_min":0,"x_max":694,"o":"m 0 0 l 0 174 l 347 174 l 347 0 l 0 0 m 347 174 l 347 347 l 521 347 l 521 174 l 347 174 m 521 347 l 521 868 l 694 868 l 694 347 l 521 347 m 347 868 l 347 1042 l 521 1042 l 521 868 l 347 868 m 0 1042 l 0 1215 l 347 1215 l 347 1042 l 0 1042 z "},"*":{"ha":868,"x_min":0,"x_max":694,"o":"m 0 347 l 0 521 l 174 521 l 174 347 l 0 347 m 521 347 l 521 521 l 694 521 l 694 347 l 521 347 m 174 521 l 174 694 l 521 694 l 521 521 l 174 521 m 0 694 l 0 868 l 174 868 l 174 694 l 0 694 m 521 694 l 521 868 l 694 868 l 694 694 l 521 694 z "},"+":{"ha":1042,"x_min":0,"x_max":868,"o":"m 347 174 l 347 521 l 0 521 l 0 694 l 347 694 l 347 1042 l 521 1042 l 521 694 l 868 694 l 868 521 l 521 521 l 521 174 l 347 174 z "},",":{"ha":347,"x_min":0,"x_max":174,"o":"m 0 -174 l 0 347 l 174 347 l 174 -174 l 0 -174 z "},"-":{"ha":1042,"x_min":0,"x_max":868,"o":"m 0 521 l 0 694 l 868 694 l 868 521 l 0 521 z "},".":{"ha":347,"x_min":0,"x_max":174,"o":"m 0 0 l 0 347 l 174 347 l 174 0 l 0 0 z "},"/":{"ha":1042,"x_min":0,"x_max":868,"o":"m 0 0 l 0 174 l 174 174 l 174 0 l 0 0 m 174 174 l 174 521 l 347 521 l 347 174 l 174 174 m 347 521 l 347 694 l 521 694 l 521 521 l 347 521 m 521 694 l 521 1042 l 694 1042 l 694 694 l 521 694 m 694 1042 l 694 1215 l 868 1215 l 868 1042 l 694 1042 z "},":":{"ha":347,"x_min":0,"x_max":174,"o":"m 0 0 l 0 347 l 174 347 l 174 0 l 0 0 m 0 521 l 0 868 l 174 868 l 174 521 l 0 521 z "},";":{"ha":347,"x_min":0,"x_max":174,"o":"m 0 -174 l 0 347 l 174 347 l 174 -174 l 0 -174 m 0 521 l 0 868 l 174 868 l 174 521 l 0 521 z "},"<":{"ha":868,"x_min":0,"x_max":694,"o":"m 521 0 l 521 174 l 694 174 l 694 0 l 521 0 m 347 174 l 347 347 l 521 347 l 521 174 l 347 174 m 174 347 l 174 521 l 347 521 l 347 347 l 174 347 m 0 521 l 0 694 l 174 694 l 174 521 l 0 521 m 174 694 l 174 868 l 347 868 l 347 694 l 174 694 m 347 868 l 347 1042 l 521 1042 l 521 868 l 347 868 m 521 1042 l 521 1215 l 694 1215 l 694 1042 l 521 1042 z "},"=":{"ha":1042,"x_min":0,"x_max":868,"o":"m 0 174 l 0 347 l 868 347 l 868 174 l 0 174 m 0 521 l 0 694 l 868 694 l 868 521 l 0 521 z "},">":{"ha":868,"x_min":0,"x_max":694,"o":"m 0 0 l 0 174 l 174 174 l 174 0 l 0 0 m 174 174 l 174 347 l 347 347 l 347 174 l 174 174 m 347 347 l 347 521 l 521 521 l 521 347 l 347 347 m 521 521 l 521 694 l 694 694 l 694 521 l 521 521 m 347 694 l 347 868 l 521 868 l 521 694 l 347 694 m 174 868 l 174 1042 l 347 1042 l 347 868 l 174 868 m 0 1042 l 0 1215 l 174 1215 l 174 1042 l 0 1042 z "},"?":{"ha":1042,"x_min":0,"x_max":868,"o":"m 347 0 l 347 174 l 521 174 l 521 0 l 347 0 m 347 347 l 347 521 l 521 521 l 521 347 l 347 347 m 521 521 l 521 694 l 694 694 l 694 521 l 521 521 m 0 868 l 0 1042 l 174 1042 l 174 868 l 0 868 m 694 694 l 694 1042 l 868 1042 l 868 694 l 694 694 m 174 1042 l 174 1215 l 694 1215 l 694 1042 l 174 1042 z "},"@":{"ha":1215,"x_min":0,"x_max":1042,"o":"m 174 0 l 174 174 l 868 174 l 868 0 l 174 0 m 0 174 l 0 1042 l 174 1042 l 174 174 l 0 174 m 347 347 l 347 868 l 694 868 l 694 521 l 868 521 l 868 1042 l 1042 1042 l 1042 347 l 347 347 m 174 1042 l 174 1215 l 868 1215 l 868 1042 l 174 1042 z "},"A":{"ha":1042,"x_min":0,"x_max":868,"o":"m 0 0 l 0 1042 l 174 1042 l 174 868 l 694 868 l 694 1042 l 868 1042 l 868 0 l 694 0 l 694 694 l 174 694 l 174 0 l 0 0 m 174 1042 l 174 1215 l 694 1215 l 694 1042 l 174 1042 z "},"B":{"ha":1042,"x_min":0,"x_max":868,"o":"m 694 174 l 694 694 l 868 694 l 868 174 l 694 174 m 694 868 l 694 1042 l 868 1042 l 868 868 l 694 868 m 0 0 l 0 1215 l 694 1215 l 694 1042 l 174 1042 l 174 868 l 694 868 l 694 694 l 174 694 l 174 174 l 694 174 l 694 0 l 0 0 z "},"C":{"ha":1042,"x_min":0,"x_max":868,"o":"m 174 0 l 174 174 l 694 174 l 694 0 l 174 0 m 694 174 l 694 347 l 868 347 l 868 174 l 694 174 m 0 174 l 0 1042 l 174 1042 l 174 174 l 0 174 m 694 868 l 694 1042 l 868 1042 l 868 868 l 694 868 m 174 1042 l 174 1215 l 694 1215 l 694 1042 l 174 1042 z "},"D":{"ha":1042,"x_min":0,"x_max":868,"o":"m 694 174 l 694 1042 l 868 1042 l 868 174 l 694 174 m 0 0 l 0 1215 l 694 1215 l 694 1042 l 174 1042 l 174 174 l 694 174 l 694 0 l 0 0 z "},"E":{"ha":1042,"x_min":0,"x_max":868,"o":"m 0 0 l 0 1215 l 868 1215 l 868 1042 l 174 1042 l 174 868 l 521 868 l 521 694 l 174 694 l 174 174 l 868 174 l 868 0 l 0 0 z "},"F":{"ha":1042,"x_min":0,"x_max":868,"o":"m 0 0 l 0 1215 l 868 1215 l 868 1042 l 174 1042 l 174 868 l 521 868 l 521 694 l 174 694 l 174 0 l 0 0 z "},"G":{"ha":1042,"x_min":0,"x_max":868,"o":"m 174 0 l 174 174 l 694 174 l 694 0 l 174 0 m 694 174 l 694 694 l 521 694 l 521 868 l 868 868 l 868 174 l 694 174 m 0 174 l 0 1042 l 174 1042 l 174 174 l 0 174 m 174 1042 l 174 1215 l 868 1215 l 868 1042 l 174 1042 z "},"H":{"ha":1042,"x_min":0,"x_max":868,"o":"m 0 0 l 0 1215 l 174 1215 l 174 868 l 694 868 l 694 1215 l 868 1215 l 868 0 l 694 0 l 694 694 l 174 694 l 174 0 l 0 0 z "},"I":{"ha":694,"x_min":0,"x_max":521,"o":"m 0 0 l 0 174 l 174 174 l 174 1042 l 0 1042 l 0 1215 l 521 1215 l 521 1042 l 347 1042 l 347 174 l 521 174 l 521 0 l 0 0 z "},"J":{"ha":1042,"x_min":0,"x_max":868,"o":"m 174 0 l 174 174 l 694 174 l 694 0 l 174 0 m 0 174 l 0 347 l 174 347 l 174 174 l 0 174 m 694 174 l 694 1215 l 868 1215 l 868 174 l 694 174 z "},"K":{"ha":1042,"x_min":0,"x_max":868,"o":"m 694 0 l 694 521 l 868 521 l 868 0 l 694 0 m 521 521 l 521 694 l 694 694 l 694 521 l 521 521 m 521 868 l 521 1042 l 694 1042 l 694 868 l 521 868 m 0 0 l 0 1215 l 174 1215 l 174 868 l 521 868 l 521 694 l 174 694 l 174 0 l 0 0 m 694 1042 l 694 1215 l 868 1215 l 868 1042 l 694 1042 z "},"L":{"ha":1042,"x_min":0,"x_max":868,"o":"m 0 0 l 0 1215 l 174 1215 l 174 174 l 868 174 l 868 0 l 0 0 z "},"M":{"ha":1042,"x_min":0,"x_max":868,"o":"m 347 694 l 347 868 l 521 868 l 521 694 l 347 694 m 0 0 l 0 1215 l 174 1215 l 174 1042 l 347 1042 l 347 868 l 174 868 l 174 0 l 0 0 m 694 0 l 694 868 l 521 868 l 521 1042 l 694 1042 l 694 1215 l 868 1215 l 868 0 l 694 0 z "},"N":{"ha":1042,"x_min":0,"x_max":868,"o":"m 347 694 l 347 868 l 521 868 l 521 694 l 347 694 m 0 0 l 0 1215 l 174 1215 l 174 1042 l 347 1042 l 347 868 l 174 868 l 174 0 l 0 0 m 694 0 l 694 521 l 521 521 l 521 694 l 694 694 l 694 1215 l 868 1215 l 868 0 l 694 0 z "},"O":{"ha":1042,"x_min":0,"x_max":868,"o":"m 174 0 l 174 174 l 694 174 l 694 0 l 174 0 m 0 174 l 0 1042 l 174 1042 l 174 174 l 0 174 m 694 174 l 694 1042 l 868 1042 l 868 174 l 694 174 m 174 1042 l 174 1215 l 694 1215 l 694 1042 l 174 1042 z "},"P":{"ha":1042,"x_min":0,"x_max":868,"o":"m 694 868 l 694 1042 l 868 1042 l 868 868 l 694 868 m 0 0 l 0 1215 l 694 1215 l 694 1042 l 174 1042 l 174 868 l 694 868 l 694 694 l 174 694 l 174 0 l 0 0 z "},"Q":{"ha":1042,"x_min":0,"x_max":868,"o":"m 174 0 l 174 174 l 521 174 l 521 0 l 174 0 m 694 0 l 694 174 l 868 174 l 868 0 l 694 0 m 521 174 l 521 347 l 694 347 l 694 174 l 521 174 m 0 174 l 0 1042 l 174 1042 l 174 174 l 0 174 m 694 347 l 694 1042 l 868 1042 l 868 347 l 694 347 m 174 1042 l 174 1215 l 694 1215 l 694 1042 l 174 1042 z "},"R":{"ha":1042,"x_min":0,"x_max":868,"o":"m 694 0 l 694 694 l 868 694 l 868 0 l 694 0 m 694 868 l 694 1042 l 868 1042 l 868 868 l 694 868 m 0 0 l 0 1215 l 694 1215 l 694 1042 l 174 1042 l 174 868 l 694 868 l 694 694 l 174 694 l 174 0 l 0 0 z "},"S":{"ha":1042,"x_min":0,"x_max":868,"o":"m 174 0 l 174 174 l 694 174 l 694 0 l 174 0 m 0 174 l 0 347 l 174 347 l 174 174 l 0 174 m 694 174 l 694 694 l 868 694 l 868 174 l 694 174 m 174 694 l 174 868 l 694 868 l 694 694 l 174 694 m 0 868 l 0 1042 l 174 1042 l 174 868 l 0 868 m 174 1042 l 174 1215 l 868 1215 l 868 1042 l 174 1042 z "},"T":{"ha":1042,"x_min":0,"x_max":868,"o":"m 347 0 l 347 1042 l 0 1042 l 0 1215 l 868 1215 l 868 1042 l 521 1042 l 521 0 l 347 0 z "},"U":{"ha":1042,"x_min":0,"x_max":868,"o":"m 174 0 l 174 174 l 694 174 l 694 0 l 174 0 m 0 174 l 0 1215 l 174 1215 l 174 174 l 0 174 m 694 174 l 694 1215 l 868 1215 l 868 174 l 694 174 z "},"V":{"ha":1042,"x_min":0,"x_max":868,"o":"m 347 0 l 347 174 l 521 174 l 521 0 l 347 0 m 174 174 l 174 521 l 347 521 l 347 174 l 174 174 m 521 174 l 521 521 l 694 521 l 694 174 l 521 174 m 0 521 l 0 1215 l 174 1215 l 174 521 l 0 521 m 694 521 l 694 1215 l 868 1215 l 868 521 l 694 521 z "},"W":{"ha":1042,"x_min":0,"x_max":868,"o":"m 347 347 l 347 521 l 521 521 l 521 347 l 347 347 m 0 0 l 0 1215 l 174 1215 l 174 347 l 347 347 l 347 174 l 174 174 l 174 0 l 0 0 m 694 0 l 694 174 l 521 174 l 521 347 l 694 347 l 694 1215 l 868 1215 l 868 0 l 694 0 z "},"X":{"ha":1042,"x_min":0,"x_max":868,"o":"m 0 0 l 0 521 l 174 521 l 174 0 l 0 0 m 694 0 l 694 521 l 868 521 l 868 0 l 694 0 m 174 521 l 174 694 l 347 694 l 347 521 l 174 521 m 521 521 l 521 694 l 694 694 l 694 521 l 521 521 m 347 694 l 347 868 l 521 868 l 521 694 l 347 694 m 174 868 l 174 1042 l 347 1042 l 347 868 l 174 868 m 521 868 l 521 1042 l 694 1042 l 694 868 l 521 868 m 0 1042 l 0 1215 l 174 1215 l 174 1042 l 0 1042 m 694 1042 l 694 1215 l 868 1215 l 868 1042 l 694 1042 z "},"Y":{"ha":1042,"x_min":0,"x_max":868,"o":"m 347 0 l 347 868 l 521 868 l 521 0 l 347 0 m 174 868 l 174 1042 l 347 1042 l 347 868 l 174 868 m 521 868 l 521 1042 l 694 1042 l 694 868 l 521 868 m 0 1042 l 0 1215 l 174 1215 l 174 1042 l 0 1042 m 694 1042 l 694 1215 l 868 1215 l 868 1042 l 694 1042 z "},"Z":{"ha":1042,"x_min":0,"x_max":868,"o":"m 0 0 l 0 347 l 174 347 l 174 174 l 868 174 l 868 0 l 0 0 m 174 347 l 174 521 l 347 521 l 347 347 l 174 347 m 347 521 l 347 694 l 521 694 l 521 521 l 347 521 m 521 694 l 521 868 l 694 868 l 694 694 l 521 694 m 694 868 l 694 1042 l 0 1042 l 0 1215 l 868 1215 l 868 868 l 694 868 z "},"[":{"ha":694,"x_min":0,"x_max":521,"o":"m 0 0 l 0 1215 l 521 1215 l 521 1042 l 174 1042 l 174 174 l 521 174 l 521 0 l 0 0 z "},"\\":{"ha":1042,"x_min":0,"x_max":868,"o":"m 694 0 l 694 174 l 868 174 l 868 0 l 694 0 m 521 174 l 521 521 l 694 521 l 694 174 l 521 174 m 347 521 l 347 694 l 521 694 l 521 521 l 347 521 m 174 694 l 174 1042 l 347 1042 l 347 694 l 174 694 m 0 1042 l 0 1215 l 174 1215 l 174 1042 l 0 1042 z "},"]":{"ha":694,"x_min":0,"x_max":521,"o":"m 0 0 l 0 174 l 347 174 l 347 1042 l 0 1042 l 0 1215 l 521 1215 l 521 0 l 0 0 z "},"^":{"ha":1042,"x_min":0,"x_max":868,"o":"m 0 694 l 0 868 l 174 868 l 174 694 l 0 694 m 694 694 l 694 868 l 868 868 l 868 694 l 694 694 m 174 868 l 174 1042 l 347 1042 l 347 868 l 174 868 m 521 868 l 521 1042 l 694 1042 l 694 868 l 521 868 m 347 1042 l 347 1215 l 521 1215 l 521 1042 l 347 1042 z "},"_":{"ha":1042,"x_min":0,"x_max":868,"o":"m 0 -174 l 0 0 l 868 0 l 868 -174 l 0 -174 z "},"`":{"ha":521,"x_min":0,"x_max":347,"o":"m 0 1042 l 0 1215 l 347 1215 l 347 1042 l 0 1042 z "},"a":{"ha":1042,"x_min":0,"x_max":868,"o":"m 0 174 l 0 347 l 174 347 l 174 174 l 0 174 m 174 0 l 174 174 l 694 174 l 694 347 l 174 347 l 174 521 l 694 521 l 694 694 l 868 694 l 868 0 l 174 0 m 174 694 l 174 868 l 694 868 l 694 694 l 174 694 z "},"b":{"ha":1042,"x_min":0,"x_max":868,"o":"m 694 174 l 694 694 l 868 694 l 868 174 l 694 174 m 347 694 l 347 868 l 694 868 l 694 694 l 347 694 m 0 0 l 0 1215 l 174 1215 l 174 694 l 347 694 l 347 521 l 174 521 l 174 174 l 694 174 l 694 0 l 0 0 z "},"c":{"ha":1042,"x_min":0,"x_max":868,"o":"m 174 0 l 174 174 l 694 174 l 694 0 l 174 0 m 694 174 l 694 347 l 868 347 l 868 174 l 694 174 m 0 174 l 0 694 l 174 694 l 174 174 l 0 174 m 694 521 l 694 694 l 868 694 l 868 521 l 694 521 m 174 694 l 174 868 l 694 868 l 694 694 l 174 694 z "},"d":{"ha":1042,"x_min":0,"x_max":868,"o":"m 0 174 l 0 694 l 174 694 l 174 174 l 0 174 m 174 694 l 174 868 l 521 868 l 521 694 l 174 694 m 174 0 l 174 174 l 694 174 l 694 521 l 521 521 l 521 694 l 694 694 l 694 1215 l 868 1215 l 868 0 l 174 0 z "},"e":{"ha":1042,"x_min":0,"x_max":868,"o":"m 174 0 l 174 174 l 868 174 l 868 0 l 174 0 m 0 174 l 0 694 l 174 694 l 174 521 l 694 521 l 694 694 l 868 694 l 868 347 l 174 347 l 174 174 l 0 174 m 174 694 l 174 868 l 694 868 l 694 694 l 174 694 z "},"f":{"ha":868,"x_min":0,"x_max":694,"o":"m 174 0 l 174 694 l 0 694 l 0 868 l 174 868 l 174 1042 l 347 1042 l 347 868 l 694 868 l 694 694 l 347 694 l 347 0 l 174 0 m 347 1042 l 347 1215 l 694 1215 l 694 1042 l 347 1042 z "},"g":{"ha":1042,"x_min":0,"x_max":868,"o":"m 0 -174 l 0 0 l 694 0 l 694 -174 l 0 -174 m 0 347 l 0 694 l 174 694 l 174 347 l 0 347 m 694 0 l 694 174 l 174 174 l 174 347 l 694 347 l 694 694 l 174 694 l 174 868 l 868 868 l 868 0 l 694 0 z "},"h":{"ha":1042,"x_min":0,"x_max":868,"o":"m 694 0 l 694 694 l 868 694 l 868 0 l 694 0 m 347 694 l 347 868 l 694 868 l 694 694 l 347 694 m 0 0 l 0 1215 l 174 1215 l 174 694 l 347 694 l 347 521 l 174 521 l 174 0 l 0 0 z "},"i":{"ha":347,"x_min":0,"x_max":174,"o":"m 0 0 l 0 868 l 174 868 l 174 0 l 0 0 m 0 1042 l 0 1215 l 174 1215 l 174 1042 l 0 1042 z "},"j":{"ha":1042,"x_min":0,"x_max":868,"o":"m 174 -174 l 174 0 l 694 0 l 694 -174 l 174 -174 m 0 0 l 0 347 l 174 347 l 174 0 l 0 0 m 694 0 l 694 694 l 868 694 l 868 0 l 694 0 m 694 868 l 694 1042 l 868 1042 l 868 868 l 694 868 z "},"k":{"ha":868,"x_min":0,"x_max":694,"o":"m 521 0 l 521 174 l 694 174 l 694 0 l 521 0 m 347 174 l 347 347 l 521 347 l 521 174 l 347 174 m 347 521 l 347 694 l 521 694 l 521 521 l 347 521 m 521 694 l 521 868 l 694 868 l 694 694 l 521 694 m 0 0 l 0 1215 l 174 1215 l 174 521 l 347 521 l 347 347 l 174 347 l 174 0 l 0 0 z "},"l":{"ha":521,"x_min":0,"x_max":347,"o":"m 174 0 l 174 174 l 347 174 l 347 0 l 174 0 m 0 174 l 0 1215 l 174 1215 l 174 174 l 0 174 z "},"m":{"ha":1042,"x_min":0,"x_max":868,"o":"m 347 347 l 347 694 l 521 694 l 521 347 l 347 347 m 694 0 l 694 694 l 868 694 l 868 0 l 694 0 m 0 0 l 0 868 l 347 868 l 347 694 l 174 694 l 174 0 l 0 0 m 521 694 l 521 868 l 694 868 l 694 694 l 521 694 z "},"n":{"ha":1042,"x_min":0,"x_max":868,"o":"m 694 0 l 694 694 l 868 694 l 868 0 l 694 0 m 0 0 l 0 868 l 694 868 l 694 694 l 174 694 l 174 0 l 0 0 z "},"o":{"ha":1042,"x_min":0,"x_max":868,"o":"m 174 0 l 174 174 l 694 174 l 694 0 l 174 0 m 0 174 l 0 694 l 174 694 l 174 174 l 0 174 m 694 174 l 694 694 l 868 694 l 868 174 l 694 174 m 174 694 l 174 868 l 694 868 l 694 694 l 174 694 z "},"p":{"ha":1042,"x_min":0,"x_max":868,"o":"m 694 347 l 694 694 l 868 694 l 868 347 l 694 347 m 0 -174 l 0 868 l 174 868 l 174 694 l 347 694 l 347 521 l 174 521 l 174 347 l 694 347 l 694 174 l 174 174 l 174 -174 l 0 -174 m 347 694 l 347 868 l 694 868 l 694 694 l 347 694 z "},"q":{"ha":1042,"x_min":0,"x_max":868,"o":"m 0 347 l 0 694 l 174 694 l 174 347 l 0 347 m 174 694 l 174 868 l 521 868 l 521 694 l 174 694 m 694 -174 l 694 174 l 174 174 l 174 347 l 694 347 l 694 521 l 521 521 l 521 694 l 694 694 l 694 868 l 868 868 l 868 -174 l 694 -174 z "},"r":{"ha":1042,"x_min":0,"x_max":868,"o":"m 694 521 l 694 694 l 868 694 l 868 521 l 694 521 m 0 0 l 0 868 l 174 868 l 174 694 l 347 694 l 347 521 l 174 521 l 174 0 l 0 0 m 347 694 l 347 868 l 694 868 l 694 694 l 347 694 z "},"s":{"ha":1042,"x_min":0,"x_max":868,"o":"m 0 0 l 0 174 l 694 174 l 694 0 l 0 0 m 694 174 l 694 347 l 868 347 l 868 174 l 694 174 m 174 347 l 174 521 l 694 521 l 694 347 l 174 347 m 0 521 l 0 694 l 174 694 l 174 521 l 0 521 m 174 694 l 174 868 l 868 868 l 868 694 l 174 694 z "},"t":{"ha":694,"x_min":0,"x_max":521,"o":"m 347 0 l 347 174 l 521 174 l 521 0 l 347 0 m 174 174 l 174 694 l 0 694 l 0 868 l 174 868 l 174 1215 l 347 1215 l 347 868 l 521 868 l 521 694 l 347 694 l 347 174 l 174 174 z "},"u":{"ha":1042,"x_min":0,"x_max":868,"o":"m 0 174 l 0 868 l 174 868 l 174 174 l 0 174 m 174 0 l 174 174 l 694 174 l 694 868 l 868 868 l 868 0 l 174 0 z "},"v":{"ha":1042,"x_min":0,"x_max":868,"o":"m 347 0 l 347 174 l 521 174 l 521 0 l 347 0 m 174 174 l 174 347 l 347 347 l 347 174 l 174 174 m 521 174 l 521 347 l 694 347 l 694 174 l 521 174 m 0 347 l 0 868 l 174 868 l 174 347 l 0 347 m 694 347 l 694 868 l 868 868 l 868 347 l 694 347 z "},"w":{"ha":1042,"x_min":0,"x_max":868,"o":"m 0 174 l 0 868 l 174 868 l 174 174 l 0 174 m 174 0 l 174 174 l 347 174 l 347 521 l 521 521 l 521 174 l 694 174 l 694 868 l 868 868 l 868 0 l 174 0 z "},"x":{"ha":1042,"x_min":0,"x_max":868,"o":"m 0 0 l 0 174 l 174 174 l 174 0 l 0 0 m 694 0 l 694 174 l 868 174 l 868 0 l 694 0 m 174 174 l 174 347 l 347 347 l 347 174 l 174 174 m 521 174 l 521 347 l 694 347 l 694 174 l 521 174 m 347 347 l 347 521 l 521 521 l 521 347 l 347 347 m 174 521 l 174 694 l 347 694 l 347 521 l 174 521 m 521 521 l 521 694 l 694 694 l 694 521 l 521 521 m 0 694 l 0 868 l 174 868 l 174 694 l 0 694 m 694 694 l 694 868 l 868 868 l 868 694 l 694 694 z "},"y":{"ha":1042,"x_min":0,"x_max":868,"o":"m 174 -174 l 174 0 l 694 0 l 694 -174 l 174 -174 m 0 347 l 0 868 l 174 868 l 174 347 l 0 347 m 694 0 l 694 174 l 174 174 l 174 347 l 694 347 l 694 868 l 868 868 l 868 0 l 694 0 z "},"z":{"ha":1042,"x_min":0,"x_max":868,"o":"m 0 0 l 0 174 l 174 174 l 174 347 l 347 347 l 347 174 l 868 174 l 868 0 l 0 0 m 347 347 l 347 521 l 521 521 l 521 347 l 347 347 m 521 521 l 521 694 l 0 694 l 0 868 l 868 868 l 868 694 l 694 694 l 694 521 l 521 521 z "},"{":{"ha":868,"x_min":0,"x_max":694,"o":"m 347 0 l 347 174 l 694 174 l 694 0 l 347 0 m 174 174 l 174 521 l 347 521 l 347 174 l 174 174 m 0 521 l 0 694 l 174 694 l 174 521 l 0 521 m 174 694 l 174 1042 l 347 1042 l 347 694 l 174 694 m 347 1042 l 347 1215 l 694 1215 l 694 1042 l 347 1042 z "},"|":{"ha":347,"x_min":0,"x_max":174,"o":"m 0 0 l 0 1215 l 174 1215 l 174 0 l 0 0 z "},"}":{"ha":868,"x_min":0,"x_max":694,"o":"m 0 0 l 0 174 l 347 174 l 347 0 l 0 0 m 347 174 l 347 521 l 521 521 l 521 174 l 347 174 m 521 521 l 521 694 l 694 694 l 694 521 l 521 521 m 347 694 l 347 1042 l 521 1042 l 521 694 l 347 694 m 0 1042 l 0 1215 l 347 1215 l 347 1042 l 0 1042 z "},"~":{"ha":1215,"x_min":0,"x_max":1042,"o":"m 0 868 l 0 1042 l 174 1042 l 174 868 l 0 868 m 521 868 l 521 1042 l 868 1042 l 868 868 l 521 868 m 174 1042 l 174 1215 l 521 1215 l 521 1042 l 174 1042 m 868 1042 l 868 1215 l 1042 1215 l 1042 1042 l 868 1042 z "},"¡":{"ha":347,"x_min":0,"x_max":174,"o":"m 0 0 l 0 868 l 174 868 l 174 0 l 0 0 m 0 1042 l 0 1215 l 174 1215 l 174 1042 l 0 1042 z "},"¢":{"ha":868,"x_min":0,"x_max":694,"o":"m 174 0 l 174 174 l 694 174 l 694 0 l 174 0 m 0 174 l 0 868 l 174 868 l 174 174 l 0 174 m 174 868 l 174 1042 l 694 1042 l 694 868 l 174 868 z "},"£":{"ha":868,"x_min":0,"x_max":694,"o":"m 0 0 l 0 174 l 174 174 l 174 521 l 0 521 l 0 694 l 174 694 l 174 868 l 347 868 l 347 694 l 521 694 l 521 521 l 347 521 l 347 174 l 694 174 l 694 0 l 0 0 m 347 868 l 347 1042 l 521 1042 l 521 868 l 347 868 z "},"¤":{"ha":694,"x_min":0,"x_max":521,"o":"m 0 347 l 0 521 l 174 521 l 174 347 l 0 347 m 347 347 l 347 521 l 521 521 l 521 347 l 347 347 m 174 521 l 174 694 l 347 694 l 347 521 l 174 521 m 0 694 l 0 868 l 174 868 l 174 694 l 0 694 m 347 694 l 347 868 l 521 868 l 521 694 l 347 694 z "},"¥":{"ha":1042,"x_min":0,"x_max":868,"o":"m 347 0 l 347 174 l 174 174 l 174 347 l 347 347 l 347 521 l 174 521 l 174 694 l 347 694 l 347 868 l 521 868 l 521 694 l 694 694 l 694 521 l 521 521 l 521 347 l 694 347 l 694 174 l 521 174 l 521 0 l 347 0 m 174 868 l 174 1042 l 347 1042 l 347 868 l 174 868 m 521 868 l 521 1042 l 694 1042 l 694 868 l 521 868 m 0 1042 l 0 1215 l 174 1215 l 174 1042 l 0 1042 m 694 1042 l 694 1215 l 868 1215 l 868 1042 l 694 1042 z "},"¦":{"ha":347,"x_min":0,"x_max":174,"o":"m 0 0 l 0 521 l 174 521 l 174 0 l 0 0 m 0 694 l 0 1215 l 174 1215 l 174 694 l 0 694 z "},"¨":{"ha":1042,"x_min":0,"x_max":868,"o":"m 347 -174 l 347 0 l 174 0 l 174 174 l 694 174 l 694 0 l 521 0 l 521 -174 l 347 -174 m 694 174 l 694 347 l 868 347 l 868 174 l 694 174 m 0 174 l 0 694 l 174 694 l 174 174 l 0 174 m 694 521 l 694 694 l 868 694 l 868 521 l 694 521 m 174 694 l 174 868 l 347 868 l 347 1042 l 521 1042 l 521 868 l 694 868 l 694 694 l 174 694 z "},"©":{"ha":1215,"x_min":0,"x_max":1042,"o":"m 347 347 l 347 868 l 694 868 l 694 694 l 521 694 l 521 521 l 694 521 l 694 347 l 347 347 m 868 174 l 868 1042 l 174 1042 l 174 174 l 868 174 m 0 0 l 0 1215 l 1042 1215 l 1042 0 l 0 0 z "},"ª":{"ha":694,"x_min":0,"x_max":521,"o":"m 0 347 l 0 694 l 347 694 l 347 868 l 0 868 l 0 1042 l 521 1042 l 521 347 l 0 347 z "},"«":{"ha":1042,"x_min":0,"x_max":868,"o":"m 347 0 l 347 174 l 521 174 l 521 0 l 347 0 m 694 0 l 694 174 l 868 174 l 868 0 l 694 0 m 174 174 l 174 347 l 347 347 l 347 174 l 174 174 m 521 174 l 521 347 l 694 347 l 694 174 l 521 174 m 0 347 l 0 521 l 174 521 l 174 347 l 0 347 m 347 347 l 347 521 l 521 521 l 521 347 l 347 347 m 174 521 l 174 694 l 347 694 l 347 521 l 174 521 m 521 521 l 521 694 l 694 694 l 694 521 l 521 521 m 347 694 l 347 868 l 521 868 l 521 694 l 347 694 m 694 694 l 694 868 l 868 868 l 868 694 l 694 694 z "},"¬":{"ha":1042,"x_min":0,"x_max":868,"o":"m 694 174 l 694 347 l 0 347 l 0 521 l 868 521 l 868 174 l 694 174 z "},"­":{"ha":868,"x_min":174,"x_max":694,"o":"m 174 347 l 174 521 l 694 521 l 694 347 l 174 347 z "},"®":{"ha":1215,"x_min":0,"x_max":1042,"o":"m 347 347 l 347 868 l 694 868 l 694 521 l 521 521 l 521 347 l 347 347 m 868 174 l 868 347 l 694 347 l 694 521 l 868 521 l 868 1042 l 174 1042 l 174 174 l 868 174 m 0 0 l 0 1215 l 1042 1215 l 1042 0 l 0 0 z "},"¯":{"ha":1042,"x_min":0,"x_max":868,"o":"m 0 1042 l 0 1215 l 868 1215 l 868 1042 l 0 1042 z "},"°":{"ha":694,"x_min":0,"x_max":521,"o":"m 347 868 l 347 1042 l 174 1042 l 174 868 l 347 868 m 0 694 l 0 1215 l 521 1215 l 521 694 l 0 694 z "},"±":{"ha":1042,"x_min":0,"x_max":868,"o":"m 0 -174 l 0 0 l 868 0 l 868 -174 l 0 -174 m 347 174 l 347 521 l 0 521 l 0 694 l 347 694 l 347 1042 l 521 1042 l 521 694 l 868 694 l 868 521 l 521 521 l 521 174 l 347 174 z "},"²":{"ha":521,"x_min":0,"x_max":347,"o":"m 0 694 l 0 1042 l 174 1042 l 174 868 l 347 868 l 347 694 l 0 694 m 174 1042 l 174 1215 l 347 1215 l 347 1042 l 174 1042 z "},"³":{"ha":521,"x_min":0,"x_max":347,"o":"m 0 694 l 0 868 l 174 868 l 174 1042 l 0 1042 l 0 1215 l 347 1215 l 347 694 l 0 694 z "},"´":{"ha":1042,"x_min":521,"x_max":868,"o":"m 521 1042 l 521 1215 l 868 1215 l 868 1042 l 521 1042 z "},"µ":{"ha":1042,"x_min":0,"x_max":868,"o":"m 0 -174 l 0 1042 l 174 1042 l 174 174 l 694 174 l 694 1042 l 868 1042 l 868 0 l 174 0 l 174 -174 l 0 -174 z "},"¶":{"ha":1042,"x_min":0,"x_max":868,"o":"m 0 694 l 0 868 l 174 868 l 174 694 l 0 694 m 347 0 l 347 521 l 174 521 l 174 694 l 347 694 l 347 868 l 174 868 l 174 1042 l 521 1042 l 521 0 l 347 0 m 694 0 l 694 1042 l 868 1042 l 868 0 l 694 0 z "},"·":{"ha":347,"x_min":0,"x_max":174,"o":"m 0 521 l 0 694 l 174 694 l 174 521 l 0 521 z "},"¸":{"ha":868,"x_min":174,"x_max":694,"o":"m 174 -174 l 174 0 l 521 0 l 521 -174 l 174 -174 m 521 0 l 521 174 l 694 174 l 694 0 l 521 0 z "},"¹":{"ha":347,"x_min":0,"x_max":174,"o":"m 0 868 l 0 1215 l 174 1215 l 174 868 l 0 868 z "},"º":{"ha":694,"x_min":0,"x_max":521,"o":"m 347 868 l 347 1042 l 174 1042 l 174 868 l 347 868 m 0 694 l 0 1215 l 521 1215 l 521 694 l 0 694 z "},"»":{"ha":1042,"x_min":0,"x_max":868,"o":"m 0 0 l 0 174 l 174 174 l 174 0 l 0 0 m 347 0 l 347 174 l 521 174 l 521 0 l 347 0 m 174 174 l 174 347 l 347 347 l 347 174 l 174 174 m 521 174 l 521 347 l 694 347 l 694 174 l 521 174 m 347 347 l 347 521 l 521 521 l 521 347 l 347 347 m 694 347 l 694 521 l 868 521 l 868 347 l 694 347 m 174 521 l 174 694 l 347 694 l 347 521 l 174 521 m 521 521 l 521 694 l 694 694 l 694 521 l 521 521 m 0 694 l 0 868 l 174 868 l 174 694 l 0 694 m 347 694 l 347 868 l 521 868 l 521 694 l 347 694 z "},"¼":{"ha":1042,"x_min":0,"x_max":868,"o":"m 0 0 l 0 174 l 174 174 l 174 0 l 0 0 m 521 0 l 521 347 l 694 347 l 694 174 l 868 174 l 868 0 l 521 0 m 174 174 l 174 521 l 347 521 l 347 174 l 174 174 m 694 347 l 694 521 l 868 521 l 868 347 l 694 347 m 347 521 l 347 694 l 521 694 l 521 521 l 347 521 m 521 694 l 521 1042 l 694 1042 l 694 694 l 521 694 m 0 868 l 0 1215 l 174 1215 l 174 868 l 0 868 m 694 1042 l 694 1215 l 868 1215 l 868 1042 l 694 1042 z "},"½":{"ha":1042,"x_min":0,"x_max":868,"o":"m 0 0 l 0 174 l 174 174 l 174 0 l 0 0 m 174 174 l 174 521 l 347 521 l 347 174 l 174 174 m 694 0 l 694 174 l 521 174 l 521 521 l 868 521 l 868 0 l 694 0 m 347 521 l 347 694 l 521 694 l 521 521 l 347 521 m 521 694 l 521 1042 l 694 1042 l 694 694 l 521 694 m 0 868 l 0 1215 l 174 1215 l 174 868 l 0 868 m 694 1042 l 694 1215 l 868 1215 l 868 1042 l 694 1042 z "},"¾":{"ha":1042,"x_min":0,"x_max":868,"o":"m 0 0 l 0 174 l 174 174 l 174 0 l 0 0 m 174 174 l 174 521 l 347 521 l 347 174 l 174 174 m 694 0 l 694 174 l 521 174 l 521 521 l 868 521 l 868 0 l 694 0 m 347 521 l 347 694 l 521 694 l 521 521 l 347 521 m 521 694 l 521 1042 l 694 1042 l 694 694 l 521 694 m 0 694 l 0 868 l 174 868 l 174 1042 l 0 1042 l 0 1215 l 347 1215 l 347 694 l 0 694 m 694 1042 l 694 1215 l 868 1215 l 868 1042 l 694 1042 z "},"¿":{"ha":1042,"x_min":0,"x_max":868,"o":"m 174 0 l 174 174 l 694 174 l 694 0 l 174 0 m 694 174 l 694 347 l 868 347 l 868 174 l 694 174 m 0 174 l 0 521 l 174 521 l 174 174 l 0 174 m 174 521 l 174 694 l 347 694 l 347 521 l 174 521 m 347 694 l 347 868 l 521 868 l 521 694 l 347 694 m 347 1042 l 347 1215 l 521 1215 l 521 1042 l 347 1042 z "},"À":{"ha":1042,"x_min":0,"x_max":868,"o":"m 0 0 l 0 694 l 174 694 l 174 521 l 694 521 l 694 694 l 868 694 l 868 0 l 694 0 l 694 347 l 174 347 l 174 0 l 0 0 m 174 694 l 174 868 l 694 868 l 694 694 l 174 694 m 0 1042 l 0 1215 l 347 1215 l 347 1042 l 0 1042 z "},"Á":{"ha":1042,"x_min":0,"x_max":868,"o":"m 0 0 l 0 694 l 174 694 l 174 521 l 694 521 l 694 694 l 868 694 l 868 0 l 694 0 l 694 347 l 174 347 l 174 0 l 0 0 m 174 694 l 174 868 l 694 868 l 694 694 l 174 694 m 521 1042 l 521 1215 l 868 1215 l 868 1042 l 521 1042 z "},"Â":{"ha":1042,"x_min":0,"x_max":868,"o":"m 0 0 l 0 694 l 174 694 l 174 521 l 694 521 l 694 694 l 868 694 l 868 0 l 694 0 l 694 347 l 174 347 l 174 0 l 0 0 m 174 694 l 174 868 l 694 868 l 694 694 l 174 694 m 0 868 l 0 1042 l 174 1042 l 174 868 l 0 868 m 694 868 l 694 1042 l 868 1042 l 868 868 l 694 868 m 174 1042 l 174 1215 l 694 1215 l 694 1042 l 174 1042 z "},"Ã":{"ha":1215,"x_min":0,"x_max":1042,"o":"m 0 0 l 0 694 l 174 694 l 174 521 l 694 521 l 694 694 l 868 694 l 868 0 l 694 0 l 694 347 l 174 347 l 174 0 l 0 0 m 0 868 l 0 1042 l 174 1042 l 174 868 l 0 868 m 174 694 l 174 868 l 521 868 l 521 1042 l 868 1042 l 868 868 l 694 868 l 694 694 l 174 694 m 174 1042 l 174 1215 l 521 1215 l 521 1042 l 174 1042 m 868 1042 l 868 1215 l 1042 1215 l 1042 1042 l 868 1042 z "},"Ä":{"ha":1042,"x_min":0,"x_max":868,"o":"m 0 0 l 0 694 l 174 694 l 174 521 l 694 521 l 694 694 l 868 694 l 868 0 l 694 0 l 694 347 l 174 347 l 174 0 l 0 0 m 174 694 l 174 868 l 694 868 l 694 694 l 174 694 m 174 1042 l 174 1215 l 347 1215 l 347 1042 l 174 1042 m 521 1042 l 521 1215 l 694 1215 l 694 1042 l 521 1042 z "},"Å":{"ha":1042,"x_min":0,"x_max":868,"o":"m 0 0 l 0 694 l 174 694 l 174 521 l 694 521 l 694 694 l 868 694 l 868 0 l 694 0 l 694 347 l 174 347 l 174 0 l 0 0 m 174 694 l 174 868 l 694 868 l 694 694 l 174 694 m 347 1042 l 347 1215 l 521 1215 l 521 1042 l 347 1042 z "},"Æ":{"ha":1042,"x_min":0,"x_max":868,"o":"m 0 0 l 0 1042 l 174 1042 l 174 868 l 347 868 l 347 1042 l 174 1042 l 174 1215 l 868 1215 l 868 1042 l 521 1042 l 521 868 l 694 868 l 694 694 l 521 694 l 521 174 l 868 174 l 868 0 l 347 0 l 347 694 l 174 694 l 174 0 l 0 0 z "},"Ç":{"ha":1042,"x_min":0,"x_max":868,"o":"m 347 -174 l 347 0 l 694 0 l 694 -174 l 347 -174 m 694 0 l 694 174 l 868 174 l 868 0 l 694 0 m 174 174 l 174 347 l 694 347 l 694 174 l 174 174 m 694 347 l 694 521 l 868 521 l 868 347 l 694 347 m 0 347 l 0 1042 l 174 1042 l 174 347 l 0 347 m 694 868 l 694 1042 l 868 1042 l 868 868 l 694 868 m 174 1042 l 174 1215 l 694 1215 l 694 1042 l 174 1042 z "},"È":{"ha":1042,"x_min":0,"x_max":868,"o":"m 0 0 l 0 868 l 868 868 l 868 694 l 174 694 l 174 521 l 521 521 l 521 347 l 174 347 l 174 174 l 868 174 l 868 0 l 0 0 m 0 1042 l 0 1215 l 347 1215 l 347 1042 l 0 1042 z "},"É":{"ha":1042,"x_min":0,"x_max":868,"o":"m 0 0 l 0 868 l 868 868 l 868 694 l 174 694 l 174 521 l 521 521 l 521 347 l 174 347 l 174 174 l 868 174 l 868 0 l 0 0 m 521 1042 l 521 1215 l 868 1215 l 868 1042 l 521 1042 z "},"Ê":{"ha":1042,"x_min":0,"x_max":868,"o":"m 0 0 l 0 694 l 174 694 l 174 521 l 521 521 l 521 347 l 174 347 l 174 174 l 868 174 l 868 0 l 0 0 m 174 694 l 174 868 l 694 868 l 694 694 l 174 694 m 0 868 l 0 1042 l 174 1042 l 174 868 l 0 868 m 694 868 l 694 1042 l 868 1042 l 868 868 l 694 868 m 174 1042 l 174 1215 l 694 1215 l 694 1042 l 174 1042 z "},"Ë":{"ha":1042,"x_min":0,"x_max":868,"o":"m 0 0 l 0 868 l 868 868 l 868 694 l 174 694 l 174 521 l 521 521 l 521 347 l 174 347 l 174 174 l 868 174 l 868 0 l 0 0 m 174 1042 l 174 1215 l 347 1215 l 347 1042 l 174 1042 m 521 1042 l 521 1215 l 694 1215 l 694 1042 l 521 1042 z "},"Ì":{"ha":868,"x_min":0,"x_max":694,"o":"m 174 0 l 174 174 l 347 174 l 347 694 l 174 694 l 174 868 l 694 868 l 694 694 l 521 694 l 521 174 l 694 174 l 694 0 l 174 0 m 0 1042 l 0 1215 l 347 1215 l 347 1042 l 0 1042 z "},"Í":{"ha":1042,"x_min":174,"x_max":868,"o":"m 174 0 l 174 174 l 347 174 l 347 694 l 174 694 l 174 868 l 694 868 l 694 694 l 521 694 l 521 174 l 694 174 l 694 0 l 174 0 m 521 1042 l 521 1215 l 868 1215 l 868 1042 l 521 1042 z "},"Î":{"ha":1042,"x_min":0,"x_max":868,"o":"m 174 0 l 174 174 l 347 174 l 347 694 l 174 694 l 174 868 l 694 868 l 694 694 l 521 694 l 521 174 l 694 174 l 694 0 l 174 0 m 0 868 l 0 1042 l 174 1042 l 174 868 l 0 868 m 694 868 l 694 1042 l 868 1042 l 868 868 l 694 868 m 174 1042 l 174 1215 l 694 1215 l 694 1042 l 174 1042 z "},"Ï":{"ha":694,"x_min":0,"x_max":521,"o":"m 0 0 l 0 174 l 174 174 l 174 694 l 0 694 l 0 868 l 521 868 l 521 694 l 347 694 l 347 174 l 521 174 l 521 0 l 0 0 m 0 1042 l 0 1215 l 174 1215 l 174 1042 l 0 1042 m 347 1042 l 347 1215 l 521 1215 l 521 1042 l 347 1042 z "},"Ð":{"ha":1215,"x_min":0,"x_max":1042,"o":"m 868 174 l 868 1042 l 1042 1042 l 1042 174 l 868 174 m 174 0 l 174 521 l 0 521 l 0 694 l 174 694 l 174 1215 l 868 1215 l 868 1042 l 347 1042 l 347 694 l 521 694 l 521 521 l 347 521 l 347 174 l 868 174 l 868 0 l 174 0 z "},"Ñ":{"ha":1215,"x_min":0,"x_max":1042,"o":"m 347 347 l 347 521 l 521 521 l 521 347 l 347 347 m 0 0 l 0 1042 l 174 1042 l 174 694 l 347 694 l 347 521 l 174 521 l 174 0 l 0 0 m 694 0 l 694 174 l 521 174 l 521 347 l 694 347 l 694 868 l 521 868 l 521 1042 l 868 1042 l 868 0 l 694 0 m 174 1042 l 174 1215 l 521 1215 l 521 1042 l 174 1042 m 868 1042 l 868 1215 l 1042 1215 l 1042 1042 l 868 1042 z "},"Ò":{"ha":1042,"x_min":0,"x_max":868,"o":"m 174 0 l 174 174 l 694 174 l 694 0 l 174 0 m 0 174 l 0 694 l 174 694 l 174 174 l 0 174 m 694 174 l 694 694 l 868 694 l 868 174 l 694 174 m 174 694 l 174 868 l 694 868 l 694 694 l 174 694 m 0 1042 l 0 1215 l 347 1215 l 347 1042 l 0 1042 z "},"Ó":{"ha":1042,"x_min":0,"x_max":868,"o":"m 174 0 l 174 174 l 694 174 l 694 0 l 174 0 m 0 174 l 0 694 l 174 694 l 174 174 l 0 174 m 694 174 l 694 694 l 868 694 l 868 174 l 694 174 m 174 694 l 174 868 l 694 868 l 694 694 l 174 694 m 521 1042 l 521 1215 l 868 1215 l 868 1042 l 521 1042 z "},"Ô":{"ha":1042,"x_min":0,"x_max":868,"o":"m 174 0 l 174 174 l 694 174 l 694 0 l 174 0 m 0 174 l 0 694 l 174 694 l 174 174 l 0 174 m 694 174 l 694 694 l 868 694 l 868 174 l 694 174 m 174 694 l 174 868 l 694 868 l 694 694 l 174 694 m 0 868 l 0 1042 l 174 1042 l 174 868 l 0 868 m 694 868 l 694 1042 l 868 1042 l 868 868 l 694 868 m 174 1042 l 174 1215 l 694 1215 l 694 1042 l 174 1042 z "},"Õ":{"ha":1215,"x_min":0,"x_max":1042,"o":"m 174 0 l 174 174 l 694 174 l 694 0 l 174 0 m 0 174 l 0 694 l 174 694 l 174 174 l 0 174 m 694 174 l 694 694 l 868 694 l 868 174 l 694 174 m 0 868 l 0 1042 l 174 1042 l 174 868 l 0 868 m 174 694 l 174 868 l 521 868 l 521 1042 l 868 1042 l 868 868 l 694 868 l 694 694 l 174 694 m 174 1042 l 174 1215 l 521 1215 l 521 1042 l 174 1042 m 868 1042 l 868 1215 l 1042 1215 l 1042 1042 l 868 1042 z "},"Ö":{"ha":1042,"x_min":0,"x_max":868,"o":"m 174 0 l 174 174 l 694 174 l 694 0 l 174 0 m 0 174 l 0 868 l 174 868 l 174 174 l 0 174 m 694 174 l 694 868 l 868 868 l 868 174 l 694 174 m 174 868 l 174 1042 l 694 1042 l 694 868 l 174 868 m 0 1042 l 0 1215 l 174 1215 l 174 1042 l 0 1042 m 694 1042 l 694 1215 l 868 1215 l 868 1042 l 694 1042 z "},"×":{"ha":1042,"x_min":0,"x_max":868,"o":"m 0 174 l 0 347 l 174 347 l 174 174 l 0 174 m 694 174 l 694 347 l 868 347 l 868 174 l 694 174 m 174 347 l 174 521 l 347 521 l 347 347 l 174 347 m 521 347 l 521 521 l 694 521 l 694 347 l 521 347 m 347 521 l 347 694 l 521 694 l 521 521 l 347 521 m 174 694 l 174 868 l 347 868 l 347 694 l 174 694 m 521 694 l 521 868 l 694 868 l 694 694 l 521 694 m 0 868 l 0 1042 l 174 1042 l 174 868 l 0 868 m 694 868 l 694 1042 l 868 1042 l 868 868 l 694 868 z "},"Ø":{"ha":1042,"x_min":0,"x_max":868,"o":"m 347 347 l 347 868 l 521 868 l 521 347 l 347 347 m 174 0 l 174 174 l 0 174 l 0 1042 l 174 1042 l 174 347 l 347 347 l 347 174 l 694 174 l 694 0 l 174 0 m 694 174 l 694 868 l 521 868 l 521 1042 l 174 1042 l 174 1215 l 694 1215 l 694 1042 l 868 1042 l 868 174 l 694 174 z "},"Ù":{"ha":1042,"x_min":0,"x_max":868,"o":"m 174 0 l 174 174 l 694 174 l 694 0 l 174 0 m 0 174 l 0 868 l 174 868 l 174 174 l 0 174 m 694 174 l 694 868 l 868 868 l 868 174 l 694 174 m 0 1042 l 0 1215 l 347 1215 l 347 1042 l 0 1042 z "},"Ú":{"ha":1042,"x_min":0,"x_max":868,"o":"m 174 0 l 174 174 l 694 174 l 694 0 l 174 0 m 0 174 l 0 868 l 174 868 l 174 174 l 0 174 m 694 174 l 694 868 l 868 868 l 868 174 l 694 174 m 521 1042 l 521 1215 l 868 1215 l 868 1042 l 521 1042 z "},"Û":{"ha":1042,"x_min":0,"x_max":868,"o":"m 174 0 l 174 174 l 694 174 l 694 0 l 174 0 m 0 174 l 0 694 l 174 694 l 174 174 l 0 174 m 694 174 l 694 694 l 868 694 l 868 174 l 694 174 m 0 868 l 0 1042 l 174 1042 l 174 868 l 0 868 m 694 868 l 694 1042 l 868 1042 l 868 868 l 694 868 m 174 1042 l 174 1215 l 694 1215 l 694 1042 l 174 1042 z "},"Ü":{"ha":1042,"x_min":0,"x_max":868,"o":"m 174 0 l 174 174 l 694 174 l 694 0 l 174 0 m 0 174 l 0 868 l 174 868 l 174 174 l 0 174 m 694 174 l 694 868 l 868 868 l 868 174 l 694 174 m 174 1042 l 174 1215 l 347 1215 l 347 1042 l 174 1042 m 521 1042 l 521 1215 l 694 1215 l 694 1042 l 521 1042 z "},"Ý":{"ha":1042,"x_min":0,"x_max":868,"o":"m 347 0 l 347 521 l 521 521 l 521 0 l 347 0 m 174 521 l 174 694 l 347 694 l 347 521 l 174 521 m 521 521 l 521 694 l 694 694 l 694 521 l 521 521 m 0 694 l 0 868 l 174 868 l 174 694 l 0 694 m 694 694 l 694 868 l 868 868 l 868 694 l 694 694 m 0 1042 l 0 1215 l 347 1215 l 347 1042 l 0 1042 z "},"Þ":{"ha":1042,"x_min":0,"x_max":868,"o":"m 694 174 l 694 694 l 868 694 l 868 174 l 694 174 m 347 694 l 347 868 l 694 868 l 694 694 l 347 694 m 0 -174 l 0 1042 l 174 1042 l 174 694 l 347 694 l 347 521 l 174 521 l 174 174 l 694 174 l 694 0 l 174 0 l 174 -174 l 0 -174 z "},"à":{"ha":1042,"x_min":0,"x_max":868,"o":"m 0 174 l 0 347 l 174 347 l 174 174 l 0 174 m 174 0 l 174 174 l 694 174 l 694 347 l 174 347 l 174 521 l 694 521 l 694 694 l 868 694 l 868 0 l 174 0 m 174 694 l 174 868 l 694 868 l 694 694 l 174 694 m 0 1042 l 0 1215 l 347 1215 l 347 1042 l 0 1042 z "},"á":{"ha":1042,"x_min":0,"x_max":868,"o":"m 0 174 l 0 347 l 174 347 l 174 174 l 0 174 m 174 0 l 174 174 l 694 174 l 694 347 l 174 347 l 174 521 l 694 521 l 694 694 l 868 694 l 868 0 l 174 0 m 174 694 l 174 868 l 694 868 l 694 694 l 174 694 m 521 1042 l 521 1215 l 868 1215 l 868 1042 l 521 1042 z "},"â":{"ha":1042,"x_min":0,"x_max":868,"o":"m 0 174 l 0 347 l 174 347 l 174 174 l 0 174 m 174 0 l 174 174 l 694 174 l 694 347 l 174 347 l 174 521 l 694 521 l 694 694 l 868 694 l 868 0 l 174 0 m 174 694 l 174 868 l 694 868 l 694 694 l 174 694 m 0 868 l 0 1042 l 174 1042 l 174 868 l 0 868 m 694 868 l 694 1042 l 868 1042 l 868 868 l 694 868 m 174 1042 l 174 1215 l 694 1215 l 694 1042 l 174 1042 z "},"ã":{"ha":1215,"x_min":0,"x_max":1042,"o":"m 0 174 l 0 347 l 174 347 l 174 174 l 0 174 m 174 0 l 174 174 l 694 174 l 694 347 l 174 347 l 174 521 l 694 521 l 694 694 l 868 694 l 868 0 l 174 0 m 0 868 l 0 1042 l 174 1042 l 174 868 l 0 868 m 174 694 l 174 868 l 521 868 l 521 1042 l 868 1042 l 868 868 l 694 868 l 694 694 l 174 694 m 174 1042 l 174 1215 l 521 1215 l 521 1042 l 174 1042 m 868 1042 l 868 1215 l 1042 1215 l 1042 1042 l 868 1042 z "},"ä":{"ha":1042,"x_min":0,"x_max":868,"o":"m 0 174 l 0 347 l 174 347 l 174 174 l 0 174 m 174 0 l 174 174 l 694 174 l 694 347 l 174 347 l 174 521 l 694 521 l 694 694 l 868 694 l 868 0 l 174 0 m 174 694 l 174 868 l 694 868 l 694 694 l 174 694 m 174 1042 l 174 1215 l 347 1215 l 347 1042 l 174 1042 m 521 1042 l 521 1215 l 694 1215 l 694 1042 l 521 1042 z "},"å":{"ha":1042,"x_min":0,"x_max":868,"o":"m 0 174 l 0 347 l 174 347 l 174 174 l 0 174 m 174 0 l 174 174 l 694 174 l 694 347 l 174 347 l 174 521 l 694 521 l 694 694 l 868 694 l 868 0 l 174 0 m 174 694 l 174 868 l 694 868 l 694 694 l 174 694 m 347 1042 l 347 1215 l 521 1215 l 521 1042 l 347 1042 z "},"æ":{"ha":1042,"x_min":0,"x_max":868,"o":"m 0 174 l 0 347 l 174 347 l 174 174 l 0 174 m 174 0 l 174 174 l 347 174 l 347 347 l 174 347 l 174 521 l 347 521 l 347 694 l 521 694 l 521 521 l 694 521 l 694 694 l 868 694 l 868 347 l 521 347 l 521 174 l 868 174 l 868 0 l 174 0 m 174 694 l 174 868 l 347 868 l 347 694 l 174 694 m 521 694 l 521 868 l 694 868 l 694 694 l 521 694 z "},"ç":{"ha":1042,"x_min":0,"x_max":868,"o":"m 347 -174 l 347 0 l 694 0 l 694 -174 l 347 -174 m 694 0 l 694 174 l 868 174 l 868 0 l 694 0 m 174 174 l 174 347 l 694 347 l 694 174 l 174 174 m 694 347 l 694 521 l 868 521 l 868 347 l 694 347 m 0 347 l 0 868 l 174 868 l 174 347 l 0 347 m 694 694 l 694 868 l 868 868 l 868 694 l 694 694 m 174 868 l 174 1042 l 694 1042 l 694 868 l 174 868 z "},"è":{"ha":1042,"x_min":0,"x_max":868,"o":"m 174 0 l 174 174 l 868 174 l 868 0 l 174 0 m 0 174 l 0 694 l 174 694 l 174 521 l 694 521 l 694 694 l 868 694 l 868 347 l 174 347 l 174 174 l 0 174 m 174 694 l 174 868 l 694 868 l 694 694 l 174 694 m 0 1042 l 0 1215 l 347 1215 l 347 1042 l 0 1042 z "},"é":{"ha":1042,"x_min":0,"x_max":868,"o":"m 174 0 l 174 174 l 868 174 l 868 0 l 174 0 m 0 174 l 0 694 l 174 694 l 174 521 l 694 521 l 694 694 l 868 694 l 868 347 l 174 347 l 174 174 l 0 174 m 174 694 l 174 868 l 694 868 l 694 694 l 174 694 m 521 1042 l 521 1215 l 868 1215 l 868 1042 l 521 1042 z "},"ê":{"ha":1042,"x_min":0,"x_max":868,"o":"m 174 0 l 174 174 l 868 174 l 868 0 l 174 0 m 0 174 l 0 694 l 174 694 l 174 521 l 694 521 l 694 694 l 868 694 l 868 347 l 174 347 l 174 174 l 0 174 m 174 694 l 174 868 l 694 868 l 694 694 l 174 694 m 0 868 l 0 1042 l 174 1042 l 174 868 l 0 868 m 694 868 l 694 1042 l 868 1042 l 868 868 l 694 868 m 174 1042 l 174 1215 l 694 1215 l 694 1042 l 174 1042 z "},"ë":{"ha":1042,"x_min":0,"x_max":868,"o":"m 174 0 l 174 174 l 868 174 l 868 0 l 174 0 m 0 174 l 0 694 l 174 694 l 174 521 l 694 521 l 694 694 l 868 694 l 868 347 l 174 347 l 174 174 l 0 174 m 174 694 l 174 868 l 694 868 l 694 694 l 174 694 m 174 1042 l 174 1215 l 347 1215 l 347 1042 l 174 1042 m 521 1042 l 521 1215 l 694 1215 l 694 1042 l 521 1042 z "},"ì":{"ha":521,"x_min":0,"x_max":347,"o":"m 174 0 l 174 868 l 347 868 l 347 0 l 174 0 m 0 1042 l 0 1215 l 347 1215 l 347 1042 l 0 1042 z "},"í":{"ha":521,"x_min":0,"x_max":347,"o":"m 0 0 l 0 868 l 174 868 l 174 0 l 0 0 m 0 1042 l 0 1215 l 347 1215 l 347 1042 l 0 1042 z "},"î":{"ha":1042,"x_min":0,"x_max":868,"o":"m 347 0 l 347 868 l 521 868 l 521 0 l 347 0 m 0 868 l 0 1042 l 174 1042 l 174 868 l 0 868 m 694 868 l 694 1042 l 868 1042 l 868 868 l 694 868 m 174 1042 l 174 1215 l 694 1215 l 694 1042 l 174 1042 z "},"ï":{"ha":868,"x_min":174,"x_max":694,"o":"m 347 0 l 347 868 l 521 868 l 521 0 l 347 0 m 174 1042 l 174 1215 l 347 1215 l 347 1042 l 174 1042 m 521 1042 l 521 1215 l 694 1215 l 694 1042 l 521 1042 z "},"ñ":{"ha":1215,"x_min":0,"x_max":1042,"o":"m 694 0 l 694 694 l 868 694 l 868 0 l 694 0 m 0 0 l 0 1042 l 174 1042 l 174 868 l 521 868 l 521 1042 l 868 1042 l 868 868 l 694 868 l 694 694 l 174 694 l 174 0 l 0 0 m 174 1042 l 174 1215 l 521 1215 l 521 1042 l 174 1042 m 868 1042 l 868 1215 l 1042 1215 l 1042 1042 l 868 1042 z "},"ò":{"ha":1042,"x_min":0,"x_max":868,"o":"m 174 0 l 174 174 l 694 174 l 694 0 l 174 0 m 0 174 l 0 694 l 174 694 l 174 174 l 0 174 m 694 174 l 694 694 l 868 694 l 868 174 l 694 174 m 174 694 l 174 868 l 694 868 l 694 694 l 174 694 m 0 1042 l 0 1215 l 347 1215 l 347 1042 l 0 1042 z "},"ó":{"ha":1042,"x_min":0,"x_max":868,"o":"m 174 0 l 174 174 l 694 174 l 694 0 l 174 0 m 0 174 l 0 694 l 174 694 l 174 174 l 0 174 m 694 174 l 694 694 l 868 694 l 868 174 l 694 174 m 174 694 l 174 868 l 694 868 l 694 694 l 174 694 m 521 1042 l 521 1215 l 868 1215 l 868 1042 l 521 1042 z "},"ô":{"ha":1042,"x_min":0,"x_max":868,"o":"m 174 0 l 174 174 l 694 174 l 694 0 l 174 0 m 0 174 l 0 694 l 174 694 l 174 174 l 0 174 m 694 174 l 694 694 l 868 694 l 868 174 l 694 174 m 174 694 l 174 868 l 694 868 l 694 694 l 174 694 m 0 868 l 0 1042 l 174 1042 l 174 868 l 0 868 m 694 868 l 694 1042 l 868 1042 l 868 868 l 694 868 m 174 1042 l 174 1215 l 694 1215 l 694 1042 l 174 1042 z "},"õ":{"ha":1215,"x_min":0,"x_max":1042,"o":"m 174 0 l 174 174 l 694 174 l 694 0 l 174 0 m 0 174 l 0 694 l 174 694 l 174 174 l 0 174 m 694 174 l 694 694 l 868 694 l 868 174 l 694 174 m 0 868 l 0 1042 l 174 1042 l 174 868 l 0 868 m 174 694 l 174 868 l 521 868 l 521 1042 l 868 1042 l 868 868 l 694 868 l 694 694 l 174 694 m 174 1042 l 174 1215 l 521 1215 l 521 1042 l 174 1042 m 868 1042 l 868 1215 l 1042 1215 l 1042 1042 l 868 1042 z "},"ö":{"ha":1042,"x_min":0,"x_max":868,"o":"m 174 0 l 174 174 l 694 174 l 694 0 l 174 0 m 0 174 l 0 694 l 174 694 l 174 174 l 0 174 m 694 174 l 694 694 l 868 694 l 868 174 l 694 174 m 174 694 l 174 868 l 694 868 l 694 694 l 174 694 m 174 1042 l 174 1215 l 347 1215 l 347 1042 l 174 1042 m 521 1042 l 521 1215 l 694 1215 l 694 1042 l 521 1042 z "},"÷":{"ha":1042,"x_min":0,"x_max":868,"o":"m 347 174 l 347 347 l 521 347 l 521 174 l 347 174 m 0 521 l 0 694 l 868 694 l 868 521 l 0 521 m 347 868 l 347 1042 l 521 1042 l 521 868 l 347 868 z "},"ø":{"ha":1042,"x_min":0,"x_max":868,"o":"m 347 347 l 347 521 l 521 521 l 521 347 l 347 347 m 174 0 l 174 174 l 0 174 l 0 694 l 174 694 l 174 347 l 347 347 l 347 174 l 694 174 l 694 0 l 174 0 m 694 174 l 694 521 l 521 521 l 521 694 l 174 694 l 174 868 l 694 868 l 694 694 l 868 694 l 868 174 l 694 174 z "},"ù":{"ha":1042,"x_min":0,"x_max":868,"o":"m 0 174 l 0 868 l 174 868 l 174 174 l 0 174 m 174 0 l 174 174 l 694 174 l 694 868 l 868 868 l 868 0 l 174 0 m 0 1042 l 0 1215 l 347 1215 l 347 1042 l 0 1042 z "},"ú":{"ha":1042,"x_min":0,"x_max":868,"o":"m 0 174 l 0 868 l 174 868 l 174 174 l 0 174 m 174 0 l 174 174 l 694 174 l 694 868 l 868 868 l 868 0 l 174 0 m 521 1042 l 521 1215 l 868 1215 l 868 1042 l 521 1042 z "},"û":{"ha":1042,"x_min":0,"x_max":868,"o":"m 0 174 l 0 694 l 174 694 l 174 174 l 0 174 m 174 0 l 174 174 l 694 174 l 694 694 l 868 694 l 868 0 l 174 0 m 0 868 l 0 1042 l 174 1042 l 174 868 l 0 868 m 694 868 l 694 1042 l 868 1042 l 868 868 l 694 868 m 174 1042 l 174 1215 l 694 1215 l 694 1042 l 174 1042 z "},"ü":{"ha":1042,"x_min":0,"x_max":868,"o":"m 0 174 l 0 868 l 174 868 l 174 174 l 0 174 m 174 0 l 174 174 l 694 174 l 694 868 l 868 868 l 868 0 l 174 0 m 174 1042 l 174 1215 l 347 1215 l 347 1042 l 174 1042 m 521 1042 l 521 1215 l 694 1215 l 694 1042 l 521 1042 z "},"ý":{"ha":1042,"x_min":0,"x_max":868,"o":"m 174 -174 l 174 0 l 694 0 l 694 -174 l 174 -174 m 0 347 l 0 868 l 174 868 l 174 347 l 0 347 m 694 0 l 694 174 l 174 174 l 174 347 l 694 347 l 694 868 l 868 868 l 868 0 l 694 0 m 0 1042 l 0 1215 l 347 1215 l 347 1042 l 0 1042 z "},"þ":{"ha":1042,"x_min":0,"x_max":868,"o":"m 694 174 l 694 694 l 868 694 l 868 174 l 694 174 m 347 694 l 347 868 l 694 868 l 694 694 l 347 694 m 0 -174 l 0 1215 l 174 1215 l 174 694 l 347 694 l 347 521 l 174 521 l 174 174 l 694 174 l 694 0 l 174 0 l 174 -174 l 0 -174 z "},"ÿ":{"ha":1042,"x_min":0,"x_max":868,"o":"m 174 -174 l 174 0 l 694 0 l 694 -174 l 174 -174 m 0 347 l 0 868 l 174 868 l 174 347 l 0 347 m 694 0 l 694 174 l 174 174 l 174 347 l 694 347 l 694 868 l 868 868 l 868 0 l 694 0 m 174 1042 l 174 1215 l 347 1215 l 347 1042 l 174 1042 m 521 1042 l 521 1215 l 694 1215 l 694 1042 l 521 1042 z "},"Œ":{"ha":1042,"x_min":0,"x_max":868,"o":"m 0 174 l 0 1042 l 174 1042 l 174 174 l 0 174 m 174 0 l 174 174 l 347 174 l 347 1042 l 174 1042 l 174 1215 l 868 1215 l 868 1042 l 521 1042 l 521 868 l 694 868 l 694 694 l 521 694 l 521 174 l 868 174 l 868 0 l 174 0 z "},"œ":{"ha":1042,"x_min":0,"x_max":868,"o":"m 174 0 l 174 174 l 347 174 l 347 0 l 174 0 m 521 0 l 521 174 l 868 174 l 868 0 l 521 0 m 0 174 l 0 694 l 174 694 l 174 174 l 0 174 m 174 694 l 174 868 l 347 868 l 347 694 l 174 694 m 347 174 l 347 694 l 521 694 l 521 521 l 694 521 l 694 694 l 521 694 l 521 868 l 868 868 l 868 347 l 521 347 l 521 174 l 347 174 z "},"Ÿ":{"ha":1042,"x_min":0,"x_max":868,"o":"m 347 0 l 347 521 l 521 521 l 521 0 l 347 0 m 174 521 l 174 694 l 347 694 l 347 521 l 174 521 m 521 521 l 521 694 l 694 694 l 694 521 l 521 521 m 0 694 l 0 868 l 174 868 l 174 694 l 0 694 m 694 694 l 694 868 l 868 868 l 868 694 l 694 694 m 174 1042 l 174 1215 l 347 1215 l 347 1042 l 174 1042 m 521 1042 l 521 1215 l 694 1215 l 694 1042 l 521 1042 z "},"—":{"ha":1215,"x_min":0,"x_max":1042,"o":"m 0 521 l 0 694 l 1042 694 l 1042 521 l 0 521 z "},"‘":{"ha":521,"x_min":0,"x_max":347,"o":"m 0 694 l 0 1042 l 174 1042 l 174 694 l 0 694 m 174 1042 l 174 1215 l 347 1215 l 347 1042 l 174 1042 z "},"’":{"ha":521,"x_min":0,"x_max":347,"o":"m 0 694 l 0 868 l 174 868 l 174 694 l 0 694 m 174 868 l 174 1215 l 347 1215 l 347 868 l 174 868 z "},"‚":{"ha":521,"x_min":0,"x_max":347,"o":"m 0 -174 l 0 0 l 174 0 l 174 -174 l 0 -174 m 174 0 l 174 347 l 347 347 l 347 0 l 174 0 z "},"‛":{"ha":521,"x_min":0,"x_max":347,"o":"m 174 694 l 174 868 l 347 868 l 347 694 l 174 694 m 0 868 l 0 1215 l 174 1215 l 174 868 l 0 868 z "},"“":{"ha":868,"x_min":0,"x_max":694,"o":"m 0 694 l 0 1042 l 174 1042 l 174 694 l 0 694 m 347 694 l 347 1042 l 521 1042 l 521 694 l 347 694 m 174 1042 l 174 1215 l 347 1215 l 347 1042 l 174 1042 m 521 1042 l 521 1215 l 694 1215 l 694 1042 l 521 1042 z "},"”":{"ha":868,"x_min":0,"x_max":694,"o":"m 0 694 l 0 868 l 174 868 l 174 694 l 0 694 m 347 694 l 347 868 l 521 868 l 521 694 l 347 694 m 174 868 l 174 1215 l 347 1215 l 347 868 l 174 868 m 521 868 l 521 1215 l 694 1215 l 694 868 l 521 868 z "},"„":{"ha":868,"x_min":0,"x_max":694,"o":"m 0 -174 l 0 0 l 174 0 l 174 -174 l 0 -174 m 347 -174 l 347 0 l 521 0 l 521 -174 l 347 -174 m 174 0 l 174 347 l 347 347 l 347 0 l 174 0 m 521 0 l 521 347 l 694 347 l 694 0 l 521 0 z "},"†":{"ha":694,"x_min":0,"x_max":521,"o":"m 174 0 l 174 521 l 0 521 l 0 694 l 174 694 l 174 1042 l 347 1042 l 347 694 l 521 694 l 521 521 l 347 521 l 347 0 l 174 0 z "},"•":{"ha":521,"x_min":0,"x_max":347,"o":"m 0 521 l 0 868 l 347 868 l 347 521 l 0 521 z "},"…":{"ha":1042,"x_min":0,"x_max":868,"o":"m 0 0 l 0 174 l 174 174 l 174 0 l 0 0 m 347 0 l 347 174 l 521 174 l 521 0 l 347 0 m 694 0 l 694 174 l 868 174 l 868 0 l 694 0 z "},"‹":{"ha":174,"x_min":0,"x_max":347,"o":"m 174 0 l 174 174 l 347 174 l 347 0 l 174 0 m 0 174 l 0 347 l 174 347 l 174 174 l 0 174 m 174 347 l 174 521 l 347 521 l 347 347 l 174 347 z "},"›":{"ha":521,"x_min":0,"x_max":347,"o":"m 0 0 l 0 174 l 174 174 l 174 0 l 0 0 m 174 174 l 174 347 l 347 347 l 347 174 l 174 174 m 0 347 l 0 521 l 174 521 l 174 347 l 0 347 z "},"€":{"ha":1042,"x_min":0,"x_max":868,"o":"m 347 0 l 347 174 l 868 174 l 868 0 l 347 0 m 174 174 l 174 347 l 0 347 l 0 521 l 174 521 l 174 694 l 0 694 l 0 868 l 174 868 l 174 1042 l 347 1042 l 347 868 l 694 868 l 694 694 l 347 694 l 347 521 l 694 521 l 694 347 l 347 347 l 347 174 l 174 174 m 347 1042 l 347 1215 l 868 1215 l 868 1042 l 347 1042 z "},"™":{"ha":1736,"x_min":0,"x_max":1563,"o":"m 174 694 l 174 1042 l 0 1042 l 0 1215 l 521 1215 l 521 1042 l 347 1042 l 347 694 l 174 694 m 694 694 l 694 1215 l 1563 1215 l 1563 694 l 1389 694 l 1389 1042 l 1215 1042 l 1215 868 l 1042 868 l 1042 1042 l 868 1042 l 868 694 l 694 694 z "},"А":{"ha":1042,"x_min":0,"x_max":868,"o":"m 0 0 l 0 868 l 174 868 l 174 521 l 694 521 l 694 1042 l 347 1042 l 347 1215 l 868 1215 l 868 0 l 694 0 l 694 347 l 174 347 l 174 0 l 0 0 m 174 868 l 174 1042 l 347 1042 l 347 868 l 174 868 z "},"Б":{"ha":1042,"x_min":0,"x_max":868,"o":"m 0 0 l 0 1215 l 694 1215 l 694 1042 l 174 1042 l 174 694 l 694 694 l 694 521 l 174 521 l 174 174 l 694 174 l 694 0 l 0 0 m 694 521 l 868 521 l 868 174 l 694 174 l 694 521 z "},"В":{"ha":1042,"x_min":0,"x_max":868,"o":"m 694 174 l 694 521 l 868 521 l 868 174 l 694 174 m 694 694 l 694 1042 l 868 1042 l 868 694 l 694 694 m 0 0 l 0 1215 l 694 1215 l 694 1042 l 174 1042 l 174 694 l 694 694 l 694 521 l 174 521 l 174 174 l 694 174 l 694 0 l 0 0 z "},"Г":{"ha":1042,"x_min":0,"x_max":868,"o":"m 0 0 l 0 1215 l 868 1215 l 868 1042 l 174 1042 l 174 0 l 0 0 z "},"Д":{"ha":1042,"x_min":0,"x_max":868,"o":"m 0 -174 l 0 174 l 174 174 l 174 1042 l 347 1042 l 347 174 l 521 174 l 521 1042 l 347 1042 l 349 1215 l 694 1215 l 694 174 l 868 174 l 868 -174 l 694 -174 l 694 -7 l 174 -9 l 174 -174 l 0 -174 z "},"Е":{"ha":1042,"x_min":0,"x_max":868,"o":"m 0 0 l 0 1215 l 868 1215 l 868 1042 l 174 1042 l 174 694 l 694 694 l 694 521 l 174 521 l 174 174 l 868 174 l 868 0 l 0 0 z "},"Ж":{"ha":1042,"x_min":0,"x_max":869,"o":"m 0 1 l 0 522 l 174 522 l 174 1 l 0 1 m 175 1215 l 175 694 l 0 694 l 0 1215 l 175 1215 m 868 1215 l 868 694 l 696 694 l 696 1215 l 868 1215 m 696 694 l 696 521 l 521 521 l 522 0 l 349 -1 l 347 521 l 175 521 l 175 694 l 347 694 l 347 1215 l 522 1215 l 521 694 l 696 694 m 869 521 l 869 0 l 694 0 l 696 521 l 869 521 z "},"З":{"ha":1042,"x_min":0,"x_max":868,"o":"m 0 347 l 174 347 l 174 174 l 0 174 l 0 347 m 174 174 l 694 174 l 694 0 l 174 0 l 174 174 m 694 174 l 694 174 l 694 521 l 694 521 l 868 521 l 868 174 l 868 174 l 694 174 m 347 694 l 694 694 l 694 521 l 347 521 l 347 694 m 694 694 l 694 1042 l 868 1042 l 868 1042 l 868 694 l 694 694 m 174 1215 l 694 1215 l 694 1215 l 694 1042 l 174 1042 l 174 1215 m 0 1042 l 174 1042 l 174 868 l 0 868 l 0 1042 z "},"И":{"ha":1042,"x_min":0,"x_max":868,"o":"m 0 1215 l 0 0 l 347 0 l 347 174 l 174 174 l 174 1215 l 0 1215 m 347 347 l 521 347 l 521 174 l 347 174 l 347 347 m 694 1215 l 694 694 l 521 694 l 521 347 l 694 347 l 694 0 l 868 0 l 868 1215 l 694 1215 z "},"Й":{"ha":1042,"x_min":0,"x_max":868,"o":"m 0 868 l 174 868 l 174 174 l 347 174 l 347 0 l 0 0 l 0 0 l 0 868 m 347 347 l 521 347 l 521 174 l 347 174 l 347 347 m 694 868 l 694 521 l 521 521 l 521 347 l 694 347 l 694 0 l 868 0 l 868 868 l 694 868 m 347 1042 l 521 1042 l 521 868 l 521 868 l 347 868 l 347 1042 m 521 1215 l 694 1215 l 694 1042 l 521 1042 l 521 1215 z "},"К":{"ha":1042,"x_min":0,"x_max":868,"o":"m 0 1215 l 174 1215 l 174 694 l 347 694 l 347 521 l 347 521 l 174 521 l 174 0 l 0 0 l 0 1215 m 347 868 l 521 868 l 521 694 l 347 694 l 347 868 m 521 1042 l 694 1042 l 694 868 l 694 868 l 521 868 l 521 868 l 521 1042 m 694 1215 l 868 1215 l 868 1215 l 868 1042 l 694 1042 l 694 1215 m 521 521 l 521 347 l 347 347 l 347 521 l 347 521 l 521 521 m 694 347 l 694 174 l 521 174 l 521 347 l 694 347 m 868 174 l 868 0 l 694 0 l 694 174 l 868 174 z "},"Л":{"ha":1042,"x_min":0,"x_max":868,"o":"m 0 0 l 0 868 l 174 868 l 174 868 l 174 0 l 0 0 m 174 1042 l 347 1042 l 347 868 l 174 868 l 174 868 l 174 1042 m 347 1215 l 868 1215 l 868 0 l 694 0 l 694 1042 l 347 1042 l 347 1215 z "},"М":{"ha":1042,"x_min":0,"x_max":868,"o":"m 0 0 l 0 1215 l 0 1215 l 174 1215 l 174 1042 l 347 1042 l 347 1042 l 347 868 l 174 868 l 174 0 l 174 0 l 0 0 m 521 868 l 347 868 l 347 694 l 521 694 l 521 868 m 694 1215 l 694 1042 l 521 1042 l 521 1042 l 521 868 l 694 868 l 694 868 l 694 0 l 868 0 l 868 0 l 868 1215 l 694 1215 z "},"Н":{"ha":1042,"x_min":0,"x_max":868,"o":"m 0 1215 l 174 1215 l 174 694 l 694 694 l 694 694 l 694 1215 l 868 1215 l 868 0 l 694 0 l 694 0 l 694 521 l 174 521 l 174 0 l 0 0 l 0 1215 z "},"О":{"ha":1042,"x_min":0,"x_max":868,"o":"m 694 1215 l 694 1042 l 174 1042 l 174 1215 l 694 1215 m 868 1042 l 868 174 l 694 174 l 694 1042 l 868 1042 m 174 1042 l 174 174 l 0 174 l 0 1042 l 174 1042 m 694 174 l 694 0 l 174 0 l 174 174 l 694 174 z "},"П":{"ha":1042,"x_min":0,"x_max":868,"o":"m 0 0 l 0 1215 l 868 1215 l 868 0 l 694 0 l 694 0 l 694 1042 l 174 1042 l 174 0 l 0 0 z "},"Р":{"ha":1042,"x_min":0,"x_max":868,"o":"m 0 0 l 0 1215 l 694 1215 l 694 1215 l 694 1215 l 694 1042 l 174 1042 l 174 694 l 694 694 l 694 521 l 174 521 l 174 0 l 0 0 m 868 1042 l 868 694 l 694 694 l 694 1042 l 868 1042 z "},"С":{"ha":1042,"x_min":0,"x_max":868,"o":"m 174 1042 l 174 174 l 0 174 l 0 1042 l 174 1042 m 694 1215 l 694 1042 l 174 1042 l 174 1215 l 694 1215 m 868 1042 l 868 868 l 694 868 l 694 1042 l 868 1042 m 694 174 l 694 0 l 174 0 l 174 174 l 694 174 m 868 347 l 868 174 l 694 174 l 694 347 l 868 347 z "},"Т":{"ha":1042,"x_min":0,"x_max":868,"o":"m 0 1215 l 868 1215 l 868 1042 l 521 1042 l 521 0 l 347 0 l 347 1042 l 0 1042 l 0 1215 z "},"У":{"ha":1042,"x_min":0,"x_max":868,"o":"m 174 1215 l 174 694 l 0 694 l 0 1215 l 174 1215 m 174 347 l 174 174 l 0 174 l 0 347 l 174 347 m 694 174 l 694 0 l 174 0 l 174 174 l 694 174 m 174 694 l 694 694 l 694 1215 l 868 1215 l 868 174 l 694 174 l 694 521 l 174 521 l 174 694 z "},"Ф":{"ha":1042,"x_min":0,"x_max":868,"o":"m 174 1042 l 347 1042 l 347 1215 l 521 1215 l 521 1042 l 694 1042 l 694 868 l 521 868 l 521 521 l 694 521 l 694 347 l 521 347 l 521 0 l 347 0 l 347 347 l 174 347 l 174 521 l 347 521 l 347 868 l 174 868 l 174 1042 m 868 868 l 868 521 l 694 521 l 694 868 l 868 868 m 174 868 l 174 521 l 0 521 l 0 868 l 174 868 z "},"Х":{"ha":1042,"x_min":0,"x_max":868,"o":"m 174 1215 l 174 868 l 0 868 l 0 1215 l 174 1215 m 868 1215 l 868 868 l 694 868 l 694 1215 l 868 1215 m 347 868 l 347 694 l 174 694 l 174 868 l 347 868 m 694 868 l 694 694 l 521 694 l 521 868 l 694 868 m 521 694 l 521 521 l 347 521 l 347 694 l 521 694 m 347 521 l 347 347 l 174 347 l 174 521 l 347 521 m 694 521 l 694 347 l 521 347 l 521 521 l 694 521 m 174 347 l 174 0 l 0 0 l 0 347 l 174 347 m 868 347 l 868 0 l 694 0 l 694 347 l 868 347 z "},"Ц":{"ha":1215,"x_min":0,"x_max":1042,"o":"m 0 1215 l 174 1215 l 174 174 l 694 174 l 694 174 l 694 1215 l 868 1215 l 868 174 l 1042 174 l 1042 -174 l 868 -174 l 868 0 l 868 0 l 0 0 l 0 0 l 0 1215 z "},"Ч":{"ha":1042,"x_min":0,"x_max":868,"o":"m 0 1215 l 174 1215 l 174 694 l 0 694 l 0 1215 m 174 694 l 694 694 l 694 1215 l 868 1215 l 868 0 l 694 0 l 694 521 l 174 521 l 174 694 z "},"Ш":{"ha":1042,"x_min":0,"x_max":868,"o":"m 0 1215 l 174 1215 l 174 174 l 347 174 l 347 1215 l 521 1215 l 521 174 l 521 174 l 694 174 l 694 1215 l 868 1215 l 868 1215 l 868 0 l 0 0 l 0 1215 z "},"Щ":{"ha":1215,"x_min":0,"x_max":1042,"o":"m 0 1215 l 174 1215 l 174 174 l 347 174 l 347 1215 l 521 1215 l 521 174 l 694 174 l 694 1215 l 868 1215 l 868 1215 l 868 174 l 868 174 l 868 174 l 1042 174 l 1042 -174 l 1042 -174 l 868 -174 l 868 0 l 0 0 l 0 1215 z "},"Ъ":{"ha":1042,"x_min":0,"x_max":868,"o":"m 0 1215 l 347 1215 l 347 694 l 694 694 l 694 521 l 347 521 l 347 174 l 694 174 l 694 0 l 174 0 l 174 0 l 174 1042 l 0 1042 l 0 1215 m 868 521 l 868 174 l 694 174 l 694 521 l 868 521 z "},"Ы":{"ha":1215,"x_min":0,"x_max":1042,"o":"m 0 1215 l 174 1215 l 174 694 l 521 694 l 521 521 l 174 521 l 174 174 l 521 174 l 521 0 l 0 0 l 0 1215 m 694 521 l 694 174 l 521 174 l 521 521 l 694 521 m 1042 1215 l 1042 0 l 868 0 l 868 1215 l 1042 1215 z "},"Ь":{"ha":1042,"x_min":0,"x_max":868,"o":"m 0 1215 l 174 1215 l 174 694 l 694 694 l 694 521 l 174 521 l 174 174 l 694 174 l 694 0 l 0 0 l 0 1215 m 868 521 l 868 174 l 694 174 l 694 521 l 868 521 z "},"Э":{"ha":1042,"x_min":0,"x_max":868,"o":"m 174 1042 l 174 868 l 0 868 l 0 1042 l 174 1042 m 694 1215 l 694 1042 l 174 1042 l 174 1215 l 694 1215 m 174 347 l 174 174 l 0 174 l 0 347 l 174 347 m 694 174 l 694 0 l 174 0 l 174 174 l 694 174 m 347 694 l 694 694 l 694 1042 l 868 1042 l 868 174 l 694 174 l 694 174 l 694 521 l 347 521 l 347 694 z "},"Ю":{"ha":1215,"x_min":0,"x_max":1042,"o":"m 0 1215 l 174 1215 l 174 694 l 347 694 l 347 1042 l 521 1042 l 521 174 l 347 174 l 347 521 l 174 521 l 174 0 l 0 0 l 0 1215 m 868 1215 l 868 1042 l 521 1042 l 521 1215 l 868 1215 m 868 174 l 868 0 l 521 0 l 521 174 l 868 174 m 1042 1042 l 1042 174 l 868 174 l 868 1042 l 1042 1042 z "},"Я":{"ha":1042,"x_min":0,"x_max":868,"o":"m 174 1042 l 174 694 l 0 694 l 0 1042 l 174 1042 m 174 1215 l 868 1215 l 868 0 l 694 0 l 694 521 l 521 521 l 521 347 l 347 347 l 347 521 l 174 521 l 174 694 l 694 694 l 694 1042 l 174 1042 l 174 1215 m 347 347 l 347 174 l 174 174 l 174 347 l 347 347 m 174 174 l 174 0 l 0 0 l 0 174 l 174 174 z "},"а":{"ha":1042,"x_min":0,"x_max":868,"o":"m 694 868 l 694 694 l 174 694 l 174 868 l 694 868 m 174 347 l 174 174 l 0 174 l 0 347 l 174 347 m 174 521 l 694 521 l 694 694 l 868 694 l 868 0 l 174 0 l 174 174 l 694 174 l 694 347 l 174 347 l 174 521 z "},"б":{"ha":1042,"x_min":0,"x_max":868,"o":"m 174 521 l 174 174 l 0 174 l 0 521 l 174 521 m 174 868 l 174 694 l 0 694 l 0 868 l 174 868 m 868 1042 l 868 868 l 174 868 l 174 1042 l 868 1042 m 694 694 l 694 521 l 174 521 l 174 694 l 694 694 m 694 174 l 694 0 l 174 0 l 174 174 l 694 174 m 868 521 l 868 174 l 694 174 l 694 521 l 868 521 z "},"в":{"ha":1042,"x_min":0,"x_max":868,"o":"m 0 0 l 0 868 l 694 868 l 694 694 l 174 694 l 174 521 l 694 521 l 694 347 l 174 347 l 174 174 l 174 174 l 694 174 l 694 0 l 0 0 m 868 694 l 868 521 l 694 521 l 694 694 l 868 694 m 868 347 l 868 174 l 694 174 l 694 347 l 868 347 z "},"г":{"ha":1042,"x_min":0,"x_max":868,"o":"m 0 0 l 0 868 l 868 868 l 868 694 l 174 694 l 174 0 l 0 0 z "},"д":{"ha":1042,"x_min":0,"x_max":868,"o":"m 694 0 l 694 -174 l 0 -174 l 0 0 l 694 0 m 174 694 l 174 347 l 0 347 l 0 694 l 174 694 m 694 868 l 694 694 l 174 694 l 174 868 l 694 868 m 174 347 l 694 347 l 694 694 l 868 694 l 868 0 l 694 0 l 694 174 l 174 174 l 174 347 l 174 347 l 174 347 z "},"е":{"ha":1042,"x_min":0,"x_max":868,"o":"m 694 868 l 694 694 l 174 694 l 174 868 l 694 868 m 868 174 l 868 0 l 174 0 l 174 174 l 868 174 m 0 694 l 174 694 l 174 521 l 694 521 l 694 694 l 868 694 l 868 347 l 174 347 l 174 174 l 0 174 l 0 694 z "},"ж":{"ha":1042,"x_min":0,"x_max":868,"o":"m 174 868 l 174 521 l 0 521 l 0 868 l 174 868 m 868 868 l 868 521 l 694 521 l 694 868 l 868 868 m 174 347 l 174 0 l 0 0 l 0 347 l 174 347 m 868 347 l 868 0 l 694 0 l 694 347 l 868 347 m 174 521 l 347 521 l 347 868 l 521 868 l 521 521 l 694 521 l 694 347 l 521 347 l 521 0 l 347 0 l 347 347 l 174 347 l 174 521 z "},"з":{"ha":1042,"x_min":0,"x_max":868,"o":"m 694 868 l 694 694 l 0 694 l 0 868 l 694 868 m 868 694 l 868 521 l 694 521 l 694 694 l 868 694 m 868 347 l 868 174 l 694 174 l 694 347 l 868 347 m 694 174 l 694 0 l 0 0 l 0 174 l 694 174 m 694 521 l 694 347 l 174 347 l 174 521 l 694 521 z "},"и":{"ha":1042,"x_min":0,"x_max":868,"o":"m 174 868 l 174 174 l 0 174 l 0 868 l 174 868 m 174 174 l 694 174 l 694 868 l 868 868 l 868 0 l 174 0 l 174 174 z "},"й":{"ha":1042,"x_min":0,"x_max":868,"o":"m 174 868 l 174 174 l 0 174 l 0 868 l 174 868 m 174 174 l 694 174 l 694 868 l 868 868 l 868 0 l 174 0 l 174 174 m 521 1042 l 521 868 l 347 868 l 347 1042 l 521 1042 m 694 1215 l 694 1042 l 521 1042 l 521 1215 l 694 1215 z "},"к":{"ha":1042,"x_min":0,"x_max":868,"o":"m 0 868 l 174 868 l 174 521 l 521 521 l 521 347 l 174 347 l 174 0 l 0 0 l 0 868 m 694 694 l 694 521 l 521 521 l 521 694 l 694 694 m 868 868 l 868 694 l 694 694 l 694 868 l 868 868 m 694 347 l 694 174 l 521 174 l 521 347 l 694 347 m 868 174 l 868 0 l 694 0 l 694 174 l 868 174 z "},"л":{"ha":1042,"x_min":0,"x_max":868,"o":"m 174 521 l 174 0 l 0 0 l 0 521 l 174 521 m 347 694 l 347 521 l 174 521 l 174 694 l 347 694 m 347 868 l 868 868 l 868 0 l 694 0 l 694 694 l 347 694 l 347 868 z "},"м":{"ha":1042,"x_min":0,"x_max":868,"o":"m 0 868 l 174 868 l 174 694 l 347 694 l 347 521 l 174 521 l 174 0 l 0 0 l 0 868 m 521 521 l 521 347 l 347 347 l 347 521 l 521 521 m 521 694 l 694 694 l 694 868 l 868 868 l 868 0 l 694 0 l 694 521 l 521 521 l 521 694 z "},"н":{"ha":1042,"x_min":0,"x_max":868,"o":"m 0 868 l 174 868 l 174 521 l 694 521 l 694 868 l 868 868 l 868 0 l 694 0 l 694 347 l 174 347 l 174 0 l 0 0 l 0 868 z "},"о":{"ha":1042,"x_min":0,"x_max":868,"o":"m 694 868 l 694 694 l 174 694 l 174 868 l 694 868 m 868 694 l 868 174 l 694 174 l 694 694 l 868 694 m 694 174 l 694 0 l 174 0 l 174 174 l 694 174 m 174 694 l 174 174 l 0 174 l 0 694 l 174 694 z "},"п":{"ha":1042,"x_min":0,"x_max":868,"o":"m 0 868 l 868 868 l 868 0 l 694 0 l 694 694 l 174 694 l 174 0 l 0 0 l 0 868 z "},"р":{"ha":1042,"x_min":0,"x_max":868,"o":"m 0 868 l 694 868 l 694 694 l 174 694 l 174 174 l 694 174 l 694 0 l 174 0 l 174 -174 l 0 -174 l 0 868 l 0 868 m 868 694 l 868 174 l 694 174 l 694 694 l 868 694 z "},"с":{"ha":1042,"x_min":0,"x_max":868,"o":"m 174 694 l 174 174 l 0 174 l 0 694 l 174 694 m 694 868 l 694 694 l 174 694 l 174 868 l 694 868 m 694 174 l 694 0 l 174 0 l 174 174 l 694 174 m 868 694 l 868 521 l 694 521 l 694 694 l 868 694 m 868 347 l 868 174 l 694 174 l 694 347 l 868 347 z "},"т":{"ha":1042,"x_min":0,"x_max":868,"o":"m 0 868 l 868 868 l 868 694 l 521 694 l 521 0 l 347 0 l 347 694 l 0 694 l 0 868 z "},"у":{"ha":1042,"x_min":0,"x_max":868,"o":"m 694 0 l 694 -174 l 0 -174 l 0 0 l 694 0 m 174 868 l 174 347 l 0 347 l 0 868 l 174 868 m 174 347 l 694 347 l 694 868 l 868 868 l 868 0 l 694 0 l 694 174 l 174 174 l 174 347 z "},"ф":{"ha":1042,"x_min":0,"x_max":868,"o":"m 174 694 l 174 347 l 0 347 l 0 694 l 174 694 m 868 694 l 868 347 l 694 347 l 694 694 l 868 694 m 174 868 l 694 868 l 694 694 l 521 694 l 521 347 l 694 347 l 694 174 l 521 174 l 521 0 l 347 0 l 347 174 l 174 174 l 174 347 l 347 347 l 347 694 l 174 694 l 174 868 z "},"х":{"ha":1042,"x_min":0,"x_max":868,"o":"m 174 868 l 174 694 l 0 694 l 0 868 l 174 868 m 868 868 l 868 694 l 694 694 l 694 868 l 868 868 m 347 694 l 347 521 l 174 521 l 174 694 l 347 694 m 694 694 l 694 521 l 521 521 l 521 694 l 694 694 m 521 521 l 521 347 l 347 347 l 347 521 l 521 521 m 347 347 l 347 174 l 174 174 l 174 347 l 347 347 m 694 347 l 694 174 l 521 174 l 521 347 l 694 347 m 174 174 l 174 0 l 0 0 l 0 174 l 174 174 m 868 174 l 868 0 l 694 0 l 694 174 l 868 174 z "},"ц":{"ha":1042,"x_min":0,"x_max":868,"o":"m 0 868 l 174 868 l 174 174 l 521 174 l 521 868 l 694 868 l 694 868 l 694 174 l 868 174 l 868 -174 l 694 -174 l 694 0 l 0 0 l 0 868 z "},"ч":{"ha":1042,"x_min":0,"x_max":868,"o":"m 174 868 l 174 521 l 0 521 l 0 868 l 174 868 m 174 521 l 694 521 l 694 868 l 694 868 l 868 868 l 868 0 l 694 0 l 694 347 l 174 347 l 174 521 z "},"ш":{"ha":1042,"x_min":0,"x_max":868,"o":"m 0 868 l 174 868 l 174 174 l 347 174 l 347 694 l 521 694 l 521 174 l 694 174 l 694 868 l 868 868 l 868 0 l 0 0 l 0 868 z "},"щ":{"ha":1215,"x_min":0,"x_max":1042,"o":"m 0 868 l 174 868 l 174 174 l 347 174 l 347 694 l 521 694 l 521 174 l 694 174 l 694 868 l 868 868 l 868 174 l 1042 174 l 1042 -174 l 868 -174 l 868 0 l 0 0 l 0 868 z "},"ъ":{"ha":1215,"x_min":0,"x_max":1042,"o":"m 0 868 l 347 868 l 347 694 l 868 694 l 868 521 l 347 521 l 347 174 l 868 174 l 868 0 l 174 0 l 174 694 l 0 694 l 0 868 m 1042 521 l 1042 174 l 868 174 l 868 521 l 1042 521 z "},"ы":{"ha":1215,"x_min":0,"x_max":1042,"o":"m 0 868 l 174 868 l 174 694 l 521 694 l 521 521 l 174 521 l 174 174 l 521 174 l 521 0 l 0 0 l 0 868 l 0 868 m 694 521 l 694 174 l 521 174 l 521 521 l 694 521 m 1042 868 l 1042 0 l 868 0 l 868 868 l 1042 868 z "},"ь":{"ha":1042,"x_min":0,"x_max":868,"o":"m 0 868 l 174 868 l 174 694 l 694 694 l 694 521 l 174 521 l 174 174 l 694 174 l 694 0 l 0 0 l 0 868 m 868 521 l 868 174 l 694 174 l 694 521 l 868 521 z "},"э":{"ha":1042,"x_min":0,"x_max":868,"o":"m 174 694 l 174 521 l 0 521 l 0 694 l 174 694 m 694 868 l 694 694 l 174 694 l 174 868 l 694 868 m 174 347 l 174 174 l 0 174 l 0 347 l 174 347 m 694 174 l 694 0 l 174 0 l 174 174 l 694 174 m 347 521 l 694 521 l 694 694 l 868 694 l 868 174 l 694 174 l 694 347 l 347 347 l 347 521 z "},"ю":{"ha":1215,"x_min":0,"x_max":1042,"o":"m 0 868 l 174 868 l 174 521 l 347 521 l 347 694 l 521 694 l 521 174 l 347 174 l 347 347 l 174 347 l 174 0 l 0 0 l 0 868 l 0 868 m 868 868 l 868 694 l 521 694 l 521 868 l 868 868 m 868 174 l 868 0 l 521 0 l 521 174 l 868 174 m 1042 694 l 1042 174 l 868 174 l 868 694 l 1042 694 z "},"я":{"ha":1042,"x_min":0,"x_max":868,"o":"m 174 694 l 174 521 l 0 521 l 0 694 l 174 694 m 174 347 l 174 0 l 0 0 l 0 347 l 174 347 m 174 868 l 868 868 l 868 0 l 694 0 l 694 347 l 174 347 l 174 521 l 694 521 l 694 694 l 174 694 l 174 868 z "},"ё":{"ha":1042,"x_min":0,"x_max":868,"o":"m 694 868 l 694 694 l 174 694 l 174 868 l 694 868 m 868 174 l 868 0 l 174 0 l 174 174 l 868 174 m 0 694 l 174 694 l 174 521 l 694 521 l 694 694 l 868 694 l 868 347 l 174 347 l 174 174 l 0 174 l 0 694 m 347 1215 l 347 1042 l 174 1042 l 174 1215 l 347 1215 m 694 1215 l 694 1042 l 521 1042 l 521 1215 l 694 1215 z "},"Ё":{"ha":1042,"x_min":0,"x_max":868,"o":"m 0 0 l 0 868 l 868 868 l 868 694 l 174 694 l 174 521 l 694 521 l 694 347 l 174 347 l 174 174 l 868 174 l 868 0 l 0 0 m 347 1215 l 347 1042 l 174 1042 l 174 1215 l 347 1215 m 694 1215 l 694 1042 l 521 1042 l 521 1215 l 694 1215 z "}}}
